%TF.GenerationSoftware,KiCad,Pcbnew,8.0.5*%
%TF.CreationDate,2024-10-01T07:57:58+01:00*%
%TF.ProjectId,RobinDSPS,526f6269-6e44-4535-9053-2e6b69636164,1.1*%
%TF.SameCoordinates,Original*%
%TF.FileFunction,Drillmap*%
%TF.FilePolarity,Positive*%
%FSLAX45Y45*%
G04 Gerber Fmt 4.5, Leading zero omitted, Abs format (unit mm)*
G04 Created by KiCad (PCBNEW 8.0.5) date 2024-10-01 07:57:58*
%MOMM*%
%LPD*%
G01*
G04 APERTURE LIST*
%ADD10C,0.200000*%
%ADD11C,0.100000*%
G04 APERTURE END LIST*
D10*
X13843000Y-8201000D02*
X13843000Y-9579000D01*
X10182200Y-9779000D02*
G75*
G02*
X9982200Y-9579000I0J200000D01*
G01*
X10182200Y-8001000D02*
X13643000Y-8001000D01*
X13643000Y-9779000D02*
X10182200Y-9779000D01*
X13643000Y-8001000D02*
G75*
G02*
X13843000Y-8201000I0J-200000D01*
G01*
X9982200Y-9579000D02*
X9982200Y-8201000D01*
X9982200Y-8201000D02*
G75*
G02*
X10182200Y-8001000I200000J0D01*
G01*
X13843000Y-9579000D02*
G75*
G02*
X13643000Y-9779000I-200000J0D01*
G01*
D11*
X10526000Y-8646400D02*
X10556000Y-8676400D01*
X10556000Y-8646400D02*
X10526000Y-8676400D01*
X10527127Y-9111127D02*
X10557127Y-9141127D01*
X10557127Y-9111127D02*
X10527127Y-9141127D01*
X10805400Y-8443200D02*
X10835400Y-8473200D01*
X10835400Y-8443200D02*
X10805400Y-8473200D01*
X10805400Y-8748000D02*
X10835400Y-8778000D01*
X10835400Y-8748000D02*
X10805400Y-8778000D01*
X10805400Y-9332200D02*
X10835400Y-9362200D01*
X10835400Y-9332200D02*
X10805400Y-9362200D01*
X10959217Y-8641755D02*
X10989217Y-8671755D01*
X10989217Y-8641755D02*
X10959217Y-8671755D01*
X11211800Y-8697200D02*
X11241800Y-8727200D01*
X11241800Y-8697200D02*
X11211800Y-8727200D01*
X11656300Y-8633700D02*
X11686300Y-8663700D01*
X11686300Y-8633700D02*
X11656300Y-8663700D01*
X11948400Y-9078200D02*
X11978400Y-9108200D01*
X11978400Y-9078200D02*
X11948400Y-9108200D01*
X12583400Y-8621000D02*
X12613400Y-8651000D01*
X12613400Y-8621000D02*
X12583400Y-8651000D01*
X12842480Y-8958820D02*
X12872480Y-8988820D01*
X12872480Y-8958820D02*
X12842480Y-8988820D01*
X12964400Y-8417800D02*
X12994400Y-8447800D01*
X12994400Y-8417800D02*
X12964400Y-8447800D01*
X10237250Y-8458000D02*
G75*
G02*
X10177250Y-8458000I-30000J0D01*
G01*
X10177250Y-8458000D02*
G75*
G02*
X10237250Y-8458000I30000J0D01*
G01*
X10267250Y-8428000D02*
X10147250Y-8428000D01*
X10147250Y-8488000D02*
G75*
G02*
X10147250Y-8428000I0J30000D01*
G01*
X10147250Y-8488000D02*
X10267250Y-8488000D01*
X10267250Y-8488000D02*
G75*
G03*
X10267250Y-8428000I0J30000D01*
G01*
X10237250Y-9322000D02*
G75*
G02*
X10177250Y-9322000I-30000J0D01*
G01*
X10177250Y-9322000D02*
G75*
G02*
X10237250Y-9322000I30000J0D01*
G01*
X10267250Y-9292000D02*
X10147250Y-9292000D01*
X10147250Y-9352000D02*
G75*
G02*
X10147250Y-9292000I0J30000D01*
G01*
X10147250Y-9352000D02*
X10267250Y-9352000D01*
X10267250Y-9352000D02*
G75*
G03*
X10267250Y-9292000I0J30000D01*
G01*
X10637250Y-8458000D02*
G75*
G02*
X10577250Y-8458000I-30000J0D01*
G01*
X10577250Y-8458000D02*
G75*
G02*
X10637250Y-8458000I30000J0D01*
G01*
X10647250Y-8428000D02*
X10567250Y-8428000D01*
X10567250Y-8488000D02*
G75*
G02*
X10567250Y-8428000I0J30000D01*
G01*
X10567250Y-8488000D02*
X10647250Y-8488000D01*
X10647250Y-8488000D02*
G75*
G03*
X10647250Y-8428000I0J30000D01*
G01*
X10637250Y-9322000D02*
G75*
G02*
X10577250Y-9322000I-30000J0D01*
G01*
X10577250Y-9322000D02*
G75*
G02*
X10637250Y-9322000I30000J0D01*
G01*
X10647250Y-9292000D02*
X10567250Y-9292000D01*
X10567250Y-9352000D02*
G75*
G02*
X10567250Y-9292000I0J30000D01*
G01*
X10567250Y-9352000D02*
X10647250Y-9352000D01*
X10647250Y-9352000D02*
G75*
G03*
X10647250Y-9292000I0J30000D01*
G01*
X13208000Y-8332000D02*
X13208000Y-8432000D01*
X13158000Y-8382000D02*
X13258000Y-8382000D01*
X13208000Y-8586000D02*
X13208000Y-8686000D01*
X13158000Y-8636000D02*
X13258000Y-8636000D01*
X13208000Y-8840000D02*
X13208000Y-8940000D01*
X13158000Y-8890000D02*
X13258000Y-8890000D01*
X13208000Y-9094000D02*
X13208000Y-9194000D01*
X13158000Y-9144000D02*
X13258000Y-9144000D01*
X13208000Y-9348000D02*
X13208000Y-9448000D01*
X13158000Y-9398000D02*
X13258000Y-9398000D01*
D10*
X10232977Y-10100484D02*
X10232977Y-9900484D01*
X10232977Y-9900484D02*
X10280596Y-9900484D01*
X10280596Y-9900484D02*
X10309167Y-9910008D01*
X10309167Y-9910008D02*
X10328215Y-9929055D01*
X10328215Y-9929055D02*
X10337739Y-9948103D01*
X10337739Y-9948103D02*
X10347263Y-9986198D01*
X10347263Y-9986198D02*
X10347263Y-10014770D01*
X10347263Y-10014770D02*
X10337739Y-10052865D01*
X10337739Y-10052865D02*
X10328215Y-10071912D01*
X10328215Y-10071912D02*
X10309167Y-10090960D01*
X10309167Y-10090960D02*
X10280596Y-10100484D01*
X10280596Y-10100484D02*
X10232977Y-10100484D01*
X10432977Y-10100484D02*
X10432977Y-9967150D01*
X10432977Y-10005246D02*
X10442501Y-9986198D01*
X10442501Y-9986198D02*
X10452024Y-9976674D01*
X10452024Y-9976674D02*
X10471072Y-9967150D01*
X10471072Y-9967150D02*
X10490120Y-9967150D01*
X10556786Y-10100484D02*
X10556786Y-9967150D01*
X10556786Y-9900484D02*
X10547263Y-9910008D01*
X10547263Y-9910008D02*
X10556786Y-9919531D01*
X10556786Y-9919531D02*
X10566310Y-9910008D01*
X10566310Y-9910008D02*
X10556786Y-9900484D01*
X10556786Y-9900484D02*
X10556786Y-9919531D01*
X10680596Y-10100484D02*
X10661548Y-10090960D01*
X10661548Y-10090960D02*
X10652024Y-10071912D01*
X10652024Y-10071912D02*
X10652024Y-9900484D01*
X10785358Y-10100484D02*
X10766310Y-10090960D01*
X10766310Y-10090960D02*
X10756786Y-10071912D01*
X10756786Y-10071912D02*
X10756786Y-9900484D01*
X11013929Y-10100484D02*
X11013929Y-9900484D01*
X11013929Y-9900484D02*
X11080596Y-10043341D01*
X11080596Y-10043341D02*
X11147263Y-9900484D01*
X11147263Y-9900484D02*
X11147263Y-10100484D01*
X11328215Y-10100484D02*
X11328215Y-9995722D01*
X11328215Y-9995722D02*
X11318691Y-9976674D01*
X11318691Y-9976674D02*
X11299643Y-9967150D01*
X11299643Y-9967150D02*
X11261548Y-9967150D01*
X11261548Y-9967150D02*
X11242501Y-9976674D01*
X11328215Y-10090960D02*
X11309167Y-10100484D01*
X11309167Y-10100484D02*
X11261548Y-10100484D01*
X11261548Y-10100484D02*
X11242501Y-10090960D01*
X11242501Y-10090960D02*
X11232977Y-10071912D01*
X11232977Y-10071912D02*
X11232977Y-10052865D01*
X11232977Y-10052865D02*
X11242501Y-10033817D01*
X11242501Y-10033817D02*
X11261548Y-10024293D01*
X11261548Y-10024293D02*
X11309167Y-10024293D01*
X11309167Y-10024293D02*
X11328215Y-10014770D01*
X11423453Y-9967150D02*
X11423453Y-10167150D01*
X11423453Y-9976674D02*
X11442501Y-9967150D01*
X11442501Y-9967150D02*
X11480596Y-9967150D01*
X11480596Y-9967150D02*
X11499643Y-9976674D01*
X11499643Y-9976674D02*
X11509167Y-9986198D01*
X11509167Y-9986198D02*
X11518691Y-10005246D01*
X11518691Y-10005246D02*
X11518691Y-10062389D01*
X11518691Y-10062389D02*
X11509167Y-10081436D01*
X11509167Y-10081436D02*
X11499643Y-10090960D01*
X11499643Y-10090960D02*
X11480596Y-10100484D01*
X11480596Y-10100484D02*
X11442501Y-10100484D01*
X11442501Y-10100484D02*
X11423453Y-10090960D01*
X11604405Y-10081436D02*
X11613929Y-10090960D01*
X11613929Y-10090960D02*
X11604405Y-10100484D01*
X11604405Y-10100484D02*
X11594882Y-10090960D01*
X11594882Y-10090960D02*
X11604405Y-10081436D01*
X11604405Y-10081436D02*
X11604405Y-10100484D01*
X11604405Y-9976674D02*
X11613929Y-9986198D01*
X11613929Y-9986198D02*
X11604405Y-9995722D01*
X11604405Y-9995722D02*
X11594882Y-9986198D01*
X11594882Y-9986198D02*
X11604405Y-9976674D01*
X11604405Y-9976674D02*
X11604405Y-9995722D01*
D11*
X9942200Y-10414000D02*
X9972200Y-10444000D01*
X9972200Y-10414000D02*
X9942200Y-10444000D01*
D10*
X10271072Y-10320484D02*
X10290120Y-10320484D01*
X10290120Y-10320484D02*
X10309167Y-10330008D01*
X10309167Y-10330008D02*
X10318691Y-10339531D01*
X10318691Y-10339531D02*
X10328215Y-10358579D01*
X10328215Y-10358579D02*
X10337739Y-10396674D01*
X10337739Y-10396674D02*
X10337739Y-10444293D01*
X10337739Y-10444293D02*
X10328215Y-10482389D01*
X10328215Y-10482389D02*
X10318691Y-10501436D01*
X10318691Y-10501436D02*
X10309167Y-10510960D01*
X10309167Y-10510960D02*
X10290120Y-10520484D01*
X10290120Y-10520484D02*
X10271072Y-10520484D01*
X10271072Y-10520484D02*
X10252024Y-10510960D01*
X10252024Y-10510960D02*
X10242501Y-10501436D01*
X10242501Y-10501436D02*
X10232977Y-10482389D01*
X10232977Y-10482389D02*
X10223453Y-10444293D01*
X10223453Y-10444293D02*
X10223453Y-10396674D01*
X10223453Y-10396674D02*
X10232977Y-10358579D01*
X10232977Y-10358579D02*
X10242501Y-10339531D01*
X10242501Y-10339531D02*
X10252024Y-10330008D01*
X10252024Y-10330008D02*
X10271072Y-10320484D01*
X10423453Y-10501436D02*
X10432977Y-10510960D01*
X10432977Y-10510960D02*
X10423453Y-10520484D01*
X10423453Y-10520484D02*
X10413929Y-10510960D01*
X10413929Y-10510960D02*
X10423453Y-10501436D01*
X10423453Y-10501436D02*
X10423453Y-10520484D01*
X10499644Y-10320484D02*
X10623453Y-10320484D01*
X10623453Y-10320484D02*
X10556786Y-10396674D01*
X10556786Y-10396674D02*
X10585358Y-10396674D01*
X10585358Y-10396674D02*
X10604405Y-10406198D01*
X10604405Y-10406198D02*
X10613929Y-10415722D01*
X10613929Y-10415722D02*
X10623453Y-10434770D01*
X10623453Y-10434770D02*
X10623453Y-10482389D01*
X10623453Y-10482389D02*
X10613929Y-10501436D01*
X10613929Y-10501436D02*
X10604405Y-10510960D01*
X10604405Y-10510960D02*
X10585358Y-10520484D01*
X10585358Y-10520484D02*
X10528215Y-10520484D01*
X10528215Y-10520484D02*
X10509167Y-10510960D01*
X10509167Y-10510960D02*
X10499644Y-10501436D01*
X10747263Y-10320484D02*
X10766310Y-10320484D01*
X10766310Y-10320484D02*
X10785358Y-10330008D01*
X10785358Y-10330008D02*
X10794882Y-10339531D01*
X10794882Y-10339531D02*
X10804405Y-10358579D01*
X10804405Y-10358579D02*
X10813929Y-10396674D01*
X10813929Y-10396674D02*
X10813929Y-10444293D01*
X10813929Y-10444293D02*
X10804405Y-10482389D01*
X10804405Y-10482389D02*
X10794882Y-10501436D01*
X10794882Y-10501436D02*
X10785358Y-10510960D01*
X10785358Y-10510960D02*
X10766310Y-10520484D01*
X10766310Y-10520484D02*
X10747263Y-10520484D01*
X10747263Y-10520484D02*
X10728215Y-10510960D01*
X10728215Y-10510960D02*
X10718691Y-10501436D01*
X10718691Y-10501436D02*
X10709167Y-10482389D01*
X10709167Y-10482389D02*
X10699644Y-10444293D01*
X10699644Y-10444293D02*
X10699644Y-10396674D01*
X10699644Y-10396674D02*
X10709167Y-10358579D01*
X10709167Y-10358579D02*
X10718691Y-10339531D01*
X10718691Y-10339531D02*
X10728215Y-10330008D01*
X10728215Y-10330008D02*
X10747263Y-10320484D01*
X10937739Y-10320484D02*
X10956786Y-10320484D01*
X10956786Y-10320484D02*
X10975834Y-10330008D01*
X10975834Y-10330008D02*
X10985358Y-10339531D01*
X10985358Y-10339531D02*
X10994882Y-10358579D01*
X10994882Y-10358579D02*
X11004405Y-10396674D01*
X11004405Y-10396674D02*
X11004405Y-10444293D01*
X11004405Y-10444293D02*
X10994882Y-10482389D01*
X10994882Y-10482389D02*
X10985358Y-10501436D01*
X10985358Y-10501436D02*
X10975834Y-10510960D01*
X10975834Y-10510960D02*
X10956786Y-10520484D01*
X10956786Y-10520484D02*
X10937739Y-10520484D01*
X10937739Y-10520484D02*
X10918691Y-10510960D01*
X10918691Y-10510960D02*
X10909167Y-10501436D01*
X10909167Y-10501436D02*
X10899644Y-10482389D01*
X10899644Y-10482389D02*
X10890120Y-10444293D01*
X10890120Y-10444293D02*
X10890120Y-10396674D01*
X10890120Y-10396674D02*
X10899644Y-10358579D01*
X10899644Y-10358579D02*
X10909167Y-10339531D01*
X10909167Y-10339531D02*
X10918691Y-10330008D01*
X10918691Y-10330008D02*
X10937739Y-10320484D01*
X11090120Y-10520484D02*
X11090120Y-10387150D01*
X11090120Y-10406198D02*
X11099644Y-10396674D01*
X11099644Y-10396674D02*
X11118691Y-10387150D01*
X11118691Y-10387150D02*
X11147263Y-10387150D01*
X11147263Y-10387150D02*
X11166310Y-10396674D01*
X11166310Y-10396674D02*
X11175834Y-10415722D01*
X11175834Y-10415722D02*
X11175834Y-10520484D01*
X11175834Y-10415722D02*
X11185358Y-10396674D01*
X11185358Y-10396674D02*
X11204405Y-10387150D01*
X11204405Y-10387150D02*
X11232977Y-10387150D01*
X11232977Y-10387150D02*
X11252024Y-10396674D01*
X11252024Y-10396674D02*
X11261548Y-10415722D01*
X11261548Y-10415722D02*
X11261548Y-10520484D01*
X11356786Y-10520484D02*
X11356786Y-10387150D01*
X11356786Y-10406198D02*
X11366310Y-10396674D01*
X11366310Y-10396674D02*
X11385358Y-10387150D01*
X11385358Y-10387150D02*
X11413929Y-10387150D01*
X11413929Y-10387150D02*
X11432977Y-10396674D01*
X11432977Y-10396674D02*
X11442501Y-10415722D01*
X11442501Y-10415722D02*
X11442501Y-10520484D01*
X11442501Y-10415722D02*
X11452024Y-10396674D01*
X11452024Y-10396674D02*
X11471072Y-10387150D01*
X11471072Y-10387150D02*
X11499643Y-10387150D01*
X11499643Y-10387150D02*
X11518691Y-10396674D01*
X11518691Y-10396674D02*
X11528215Y-10415722D01*
X11528215Y-10415722D02*
X11528215Y-10520484D01*
X11918691Y-10310960D02*
X11747263Y-10568103D01*
X12175834Y-10320484D02*
X12194882Y-10320484D01*
X12194882Y-10320484D02*
X12213929Y-10330008D01*
X12213929Y-10330008D02*
X12223453Y-10339531D01*
X12223453Y-10339531D02*
X12232977Y-10358579D01*
X12232977Y-10358579D02*
X12242501Y-10396674D01*
X12242501Y-10396674D02*
X12242501Y-10444293D01*
X12242501Y-10444293D02*
X12232977Y-10482389D01*
X12232977Y-10482389D02*
X12223453Y-10501436D01*
X12223453Y-10501436D02*
X12213929Y-10510960D01*
X12213929Y-10510960D02*
X12194882Y-10520484D01*
X12194882Y-10520484D02*
X12175834Y-10520484D01*
X12175834Y-10520484D02*
X12156786Y-10510960D01*
X12156786Y-10510960D02*
X12147263Y-10501436D01*
X12147263Y-10501436D02*
X12137739Y-10482389D01*
X12137739Y-10482389D02*
X12128215Y-10444293D01*
X12128215Y-10444293D02*
X12128215Y-10396674D01*
X12128215Y-10396674D02*
X12137739Y-10358579D01*
X12137739Y-10358579D02*
X12147263Y-10339531D01*
X12147263Y-10339531D02*
X12156786Y-10330008D01*
X12156786Y-10330008D02*
X12175834Y-10320484D01*
X12328215Y-10501436D02*
X12337739Y-10510960D01*
X12337739Y-10510960D02*
X12328215Y-10520484D01*
X12328215Y-10520484D02*
X12318691Y-10510960D01*
X12318691Y-10510960D02*
X12328215Y-10501436D01*
X12328215Y-10501436D02*
X12328215Y-10520484D01*
X12461548Y-10320484D02*
X12480596Y-10320484D01*
X12480596Y-10320484D02*
X12499644Y-10330008D01*
X12499644Y-10330008D02*
X12509167Y-10339531D01*
X12509167Y-10339531D02*
X12518691Y-10358579D01*
X12518691Y-10358579D02*
X12528215Y-10396674D01*
X12528215Y-10396674D02*
X12528215Y-10444293D01*
X12528215Y-10444293D02*
X12518691Y-10482389D01*
X12518691Y-10482389D02*
X12509167Y-10501436D01*
X12509167Y-10501436D02*
X12499644Y-10510960D01*
X12499644Y-10510960D02*
X12480596Y-10520484D01*
X12480596Y-10520484D02*
X12461548Y-10520484D01*
X12461548Y-10520484D02*
X12442501Y-10510960D01*
X12442501Y-10510960D02*
X12432977Y-10501436D01*
X12432977Y-10501436D02*
X12423453Y-10482389D01*
X12423453Y-10482389D02*
X12413929Y-10444293D01*
X12413929Y-10444293D02*
X12413929Y-10396674D01*
X12413929Y-10396674D02*
X12423453Y-10358579D01*
X12423453Y-10358579D02*
X12432977Y-10339531D01*
X12432977Y-10339531D02*
X12442501Y-10330008D01*
X12442501Y-10330008D02*
X12461548Y-10320484D01*
X12718691Y-10520484D02*
X12604406Y-10520484D01*
X12661548Y-10520484D02*
X12661548Y-10320484D01*
X12661548Y-10320484D02*
X12642501Y-10349055D01*
X12642501Y-10349055D02*
X12623453Y-10368103D01*
X12623453Y-10368103D02*
X12604406Y-10377627D01*
X12909167Y-10520484D02*
X12794882Y-10520484D01*
X12852025Y-10520484D02*
X12852025Y-10320484D01*
X12852025Y-10320484D02*
X12832977Y-10349055D01*
X12832977Y-10349055D02*
X12813929Y-10368103D01*
X12813929Y-10368103D02*
X12794882Y-10377627D01*
X13023453Y-10406198D02*
X13004406Y-10396674D01*
X13004406Y-10396674D02*
X12994882Y-10387150D01*
X12994882Y-10387150D02*
X12985358Y-10368103D01*
X12985358Y-10368103D02*
X12985358Y-10358579D01*
X12985358Y-10358579D02*
X12994882Y-10339531D01*
X12994882Y-10339531D02*
X13004406Y-10330008D01*
X13004406Y-10330008D02*
X13023453Y-10320484D01*
X13023453Y-10320484D02*
X13061548Y-10320484D01*
X13061548Y-10320484D02*
X13080596Y-10330008D01*
X13080596Y-10330008D02*
X13090120Y-10339531D01*
X13090120Y-10339531D02*
X13099644Y-10358579D01*
X13099644Y-10358579D02*
X13099644Y-10368103D01*
X13099644Y-10368103D02*
X13090120Y-10387150D01*
X13090120Y-10387150D02*
X13080596Y-10396674D01*
X13080596Y-10396674D02*
X13061548Y-10406198D01*
X13061548Y-10406198D02*
X13023453Y-10406198D01*
X13023453Y-10406198D02*
X13004406Y-10415722D01*
X13004406Y-10415722D02*
X12994882Y-10425246D01*
X12994882Y-10425246D02*
X12985358Y-10444293D01*
X12985358Y-10444293D02*
X12985358Y-10482389D01*
X12985358Y-10482389D02*
X12994882Y-10501436D01*
X12994882Y-10501436D02*
X13004406Y-10510960D01*
X13004406Y-10510960D02*
X13023453Y-10520484D01*
X13023453Y-10520484D02*
X13061548Y-10520484D01*
X13061548Y-10520484D02*
X13080596Y-10510960D01*
X13080596Y-10510960D02*
X13090120Y-10501436D01*
X13090120Y-10501436D02*
X13099644Y-10482389D01*
X13099644Y-10482389D02*
X13099644Y-10444293D01*
X13099644Y-10444293D02*
X13090120Y-10425246D01*
X13090120Y-10425246D02*
X13080596Y-10415722D01*
X13080596Y-10415722D02*
X13061548Y-10406198D01*
X13175834Y-10320484D02*
X13175834Y-10358579D01*
X13252025Y-10320484D02*
X13252025Y-10358579D01*
X13547263Y-10596674D02*
X13537739Y-10587150D01*
X13537739Y-10587150D02*
X13518691Y-10558579D01*
X13518691Y-10558579D02*
X13509168Y-10539531D01*
X13509168Y-10539531D02*
X13499644Y-10510960D01*
X13499644Y-10510960D02*
X13490120Y-10463341D01*
X13490120Y-10463341D02*
X13490120Y-10425246D01*
X13490120Y-10425246D02*
X13499644Y-10377627D01*
X13499644Y-10377627D02*
X13509168Y-10349055D01*
X13509168Y-10349055D02*
X13518691Y-10330008D01*
X13518691Y-10330008D02*
X13537739Y-10301436D01*
X13537739Y-10301436D02*
X13547263Y-10291912D01*
X13728215Y-10520484D02*
X13613929Y-10520484D01*
X13671072Y-10520484D02*
X13671072Y-10320484D01*
X13671072Y-10320484D02*
X13652025Y-10349055D01*
X13652025Y-10349055D02*
X13632977Y-10368103D01*
X13632977Y-10368103D02*
X13613929Y-10377627D01*
X13804406Y-10339531D02*
X13813929Y-10330008D01*
X13813929Y-10330008D02*
X13832977Y-10320484D01*
X13832977Y-10320484D02*
X13880596Y-10320484D01*
X13880596Y-10320484D02*
X13899644Y-10330008D01*
X13899644Y-10330008D02*
X13909168Y-10339531D01*
X13909168Y-10339531D02*
X13918691Y-10358579D01*
X13918691Y-10358579D02*
X13918691Y-10377627D01*
X13918691Y-10377627D02*
X13909168Y-10406198D01*
X13909168Y-10406198D02*
X13794882Y-10520484D01*
X13794882Y-10520484D02*
X13918691Y-10520484D01*
X14156787Y-10520484D02*
X14156787Y-10320484D01*
X14242501Y-10520484D02*
X14242501Y-10415722D01*
X14242501Y-10415722D02*
X14232977Y-10396674D01*
X14232977Y-10396674D02*
X14213930Y-10387150D01*
X14213930Y-10387150D02*
X14185358Y-10387150D01*
X14185358Y-10387150D02*
X14166310Y-10396674D01*
X14166310Y-10396674D02*
X14156787Y-10406198D01*
X14366310Y-10520484D02*
X14347263Y-10510960D01*
X14347263Y-10510960D02*
X14337739Y-10501436D01*
X14337739Y-10501436D02*
X14328215Y-10482389D01*
X14328215Y-10482389D02*
X14328215Y-10425246D01*
X14328215Y-10425246D02*
X14337739Y-10406198D01*
X14337739Y-10406198D02*
X14347263Y-10396674D01*
X14347263Y-10396674D02*
X14366310Y-10387150D01*
X14366310Y-10387150D02*
X14394882Y-10387150D01*
X14394882Y-10387150D02*
X14413930Y-10396674D01*
X14413930Y-10396674D02*
X14423453Y-10406198D01*
X14423453Y-10406198D02*
X14432977Y-10425246D01*
X14432977Y-10425246D02*
X14432977Y-10482389D01*
X14432977Y-10482389D02*
X14423453Y-10501436D01*
X14423453Y-10501436D02*
X14413930Y-10510960D01*
X14413930Y-10510960D02*
X14394882Y-10520484D01*
X14394882Y-10520484D02*
X14366310Y-10520484D01*
X14547263Y-10520484D02*
X14528215Y-10510960D01*
X14528215Y-10510960D02*
X14518691Y-10491912D01*
X14518691Y-10491912D02*
X14518691Y-10320484D01*
X14699644Y-10510960D02*
X14680596Y-10520484D01*
X14680596Y-10520484D02*
X14642501Y-10520484D01*
X14642501Y-10520484D02*
X14623453Y-10510960D01*
X14623453Y-10510960D02*
X14613930Y-10491912D01*
X14613930Y-10491912D02*
X14613930Y-10415722D01*
X14613930Y-10415722D02*
X14623453Y-10396674D01*
X14623453Y-10396674D02*
X14642501Y-10387150D01*
X14642501Y-10387150D02*
X14680596Y-10387150D01*
X14680596Y-10387150D02*
X14699644Y-10396674D01*
X14699644Y-10396674D02*
X14709168Y-10415722D01*
X14709168Y-10415722D02*
X14709168Y-10434770D01*
X14709168Y-10434770D02*
X14613930Y-10453817D01*
X14785358Y-10510960D02*
X14804406Y-10520484D01*
X14804406Y-10520484D02*
X14842501Y-10520484D01*
X14842501Y-10520484D02*
X14861549Y-10510960D01*
X14861549Y-10510960D02*
X14871072Y-10491912D01*
X14871072Y-10491912D02*
X14871072Y-10482389D01*
X14871072Y-10482389D02*
X14861549Y-10463341D01*
X14861549Y-10463341D02*
X14842501Y-10453817D01*
X14842501Y-10453817D02*
X14813930Y-10453817D01*
X14813930Y-10453817D02*
X14794882Y-10444293D01*
X14794882Y-10444293D02*
X14785358Y-10425246D01*
X14785358Y-10425246D02*
X14785358Y-10415722D01*
X14785358Y-10415722D02*
X14794882Y-10396674D01*
X14794882Y-10396674D02*
X14813930Y-10387150D01*
X14813930Y-10387150D02*
X14842501Y-10387150D01*
X14842501Y-10387150D02*
X14861549Y-10396674D01*
X14937739Y-10596674D02*
X14947263Y-10587150D01*
X14947263Y-10587150D02*
X14966311Y-10558579D01*
X14966311Y-10558579D02*
X14975834Y-10539531D01*
X14975834Y-10539531D02*
X14985358Y-10510960D01*
X14985358Y-10510960D02*
X14994882Y-10463341D01*
X14994882Y-10463341D02*
X14994882Y-10425246D01*
X14994882Y-10425246D02*
X14985358Y-10377627D01*
X14985358Y-10377627D02*
X14975834Y-10349055D01*
X14975834Y-10349055D02*
X14966311Y-10330008D01*
X14966311Y-10330008D02*
X14947263Y-10301436D01*
X14947263Y-10301436D02*
X14937739Y-10291912D01*
D11*
X9972200Y-10693000D02*
G75*
G02*
X9912200Y-10693000I-30000J0D01*
G01*
X9912200Y-10693000D02*
G75*
G02*
X9972200Y-10693000I30000J0D01*
G01*
D10*
X10271072Y-10584484D02*
X10290120Y-10584484D01*
X10290120Y-10584484D02*
X10309167Y-10594008D01*
X10309167Y-10594008D02*
X10318691Y-10603531D01*
X10318691Y-10603531D02*
X10328215Y-10622579D01*
X10328215Y-10622579D02*
X10337739Y-10660674D01*
X10337739Y-10660674D02*
X10337739Y-10708293D01*
X10337739Y-10708293D02*
X10328215Y-10746389D01*
X10328215Y-10746389D02*
X10318691Y-10765436D01*
X10318691Y-10765436D02*
X10309167Y-10774960D01*
X10309167Y-10774960D02*
X10290120Y-10784484D01*
X10290120Y-10784484D02*
X10271072Y-10784484D01*
X10271072Y-10784484D02*
X10252024Y-10774960D01*
X10252024Y-10774960D02*
X10242501Y-10765436D01*
X10242501Y-10765436D02*
X10232977Y-10746389D01*
X10232977Y-10746389D02*
X10223453Y-10708293D01*
X10223453Y-10708293D02*
X10223453Y-10660674D01*
X10223453Y-10660674D02*
X10232977Y-10622579D01*
X10232977Y-10622579D02*
X10242501Y-10603531D01*
X10242501Y-10603531D02*
X10252024Y-10594008D01*
X10252024Y-10594008D02*
X10271072Y-10584484D01*
X10423453Y-10765436D02*
X10432977Y-10774960D01*
X10432977Y-10774960D02*
X10423453Y-10784484D01*
X10423453Y-10784484D02*
X10413929Y-10774960D01*
X10413929Y-10774960D02*
X10423453Y-10765436D01*
X10423453Y-10765436D02*
X10423453Y-10784484D01*
X10604405Y-10584484D02*
X10566310Y-10584484D01*
X10566310Y-10584484D02*
X10547263Y-10594008D01*
X10547263Y-10594008D02*
X10537739Y-10603531D01*
X10537739Y-10603531D02*
X10518691Y-10632103D01*
X10518691Y-10632103D02*
X10509167Y-10670198D01*
X10509167Y-10670198D02*
X10509167Y-10746389D01*
X10509167Y-10746389D02*
X10518691Y-10765436D01*
X10518691Y-10765436D02*
X10528215Y-10774960D01*
X10528215Y-10774960D02*
X10547263Y-10784484D01*
X10547263Y-10784484D02*
X10585358Y-10784484D01*
X10585358Y-10784484D02*
X10604405Y-10774960D01*
X10604405Y-10774960D02*
X10613929Y-10765436D01*
X10613929Y-10765436D02*
X10623453Y-10746389D01*
X10623453Y-10746389D02*
X10623453Y-10698770D01*
X10623453Y-10698770D02*
X10613929Y-10679722D01*
X10613929Y-10679722D02*
X10604405Y-10670198D01*
X10604405Y-10670198D02*
X10585358Y-10660674D01*
X10585358Y-10660674D02*
X10547263Y-10660674D01*
X10547263Y-10660674D02*
X10528215Y-10670198D01*
X10528215Y-10670198D02*
X10518691Y-10679722D01*
X10518691Y-10679722D02*
X10509167Y-10698770D01*
X10747263Y-10584484D02*
X10766310Y-10584484D01*
X10766310Y-10584484D02*
X10785358Y-10594008D01*
X10785358Y-10594008D02*
X10794882Y-10603531D01*
X10794882Y-10603531D02*
X10804405Y-10622579D01*
X10804405Y-10622579D02*
X10813929Y-10660674D01*
X10813929Y-10660674D02*
X10813929Y-10708293D01*
X10813929Y-10708293D02*
X10804405Y-10746389D01*
X10804405Y-10746389D02*
X10794882Y-10765436D01*
X10794882Y-10765436D02*
X10785358Y-10774960D01*
X10785358Y-10774960D02*
X10766310Y-10784484D01*
X10766310Y-10784484D02*
X10747263Y-10784484D01*
X10747263Y-10784484D02*
X10728215Y-10774960D01*
X10728215Y-10774960D02*
X10718691Y-10765436D01*
X10718691Y-10765436D02*
X10709167Y-10746389D01*
X10709167Y-10746389D02*
X10699644Y-10708293D01*
X10699644Y-10708293D02*
X10699644Y-10660674D01*
X10699644Y-10660674D02*
X10709167Y-10622579D01*
X10709167Y-10622579D02*
X10718691Y-10603531D01*
X10718691Y-10603531D02*
X10728215Y-10594008D01*
X10728215Y-10594008D02*
X10747263Y-10584484D01*
X10937739Y-10584484D02*
X10956786Y-10584484D01*
X10956786Y-10584484D02*
X10975834Y-10594008D01*
X10975834Y-10594008D02*
X10985358Y-10603531D01*
X10985358Y-10603531D02*
X10994882Y-10622579D01*
X10994882Y-10622579D02*
X11004405Y-10660674D01*
X11004405Y-10660674D02*
X11004405Y-10708293D01*
X11004405Y-10708293D02*
X10994882Y-10746389D01*
X10994882Y-10746389D02*
X10985358Y-10765436D01*
X10985358Y-10765436D02*
X10975834Y-10774960D01*
X10975834Y-10774960D02*
X10956786Y-10784484D01*
X10956786Y-10784484D02*
X10937739Y-10784484D01*
X10937739Y-10784484D02*
X10918691Y-10774960D01*
X10918691Y-10774960D02*
X10909167Y-10765436D01*
X10909167Y-10765436D02*
X10899644Y-10746389D01*
X10899644Y-10746389D02*
X10890120Y-10708293D01*
X10890120Y-10708293D02*
X10890120Y-10660674D01*
X10890120Y-10660674D02*
X10899644Y-10622579D01*
X10899644Y-10622579D02*
X10909167Y-10603531D01*
X10909167Y-10603531D02*
X10918691Y-10594008D01*
X10918691Y-10594008D02*
X10937739Y-10584484D01*
X11090120Y-10784484D02*
X11090120Y-10651150D01*
X11090120Y-10670198D02*
X11099644Y-10660674D01*
X11099644Y-10660674D02*
X11118691Y-10651150D01*
X11118691Y-10651150D02*
X11147263Y-10651150D01*
X11147263Y-10651150D02*
X11166310Y-10660674D01*
X11166310Y-10660674D02*
X11175834Y-10679722D01*
X11175834Y-10679722D02*
X11175834Y-10784484D01*
X11175834Y-10679722D02*
X11185358Y-10660674D01*
X11185358Y-10660674D02*
X11204405Y-10651150D01*
X11204405Y-10651150D02*
X11232977Y-10651150D01*
X11232977Y-10651150D02*
X11252024Y-10660674D01*
X11252024Y-10660674D02*
X11261548Y-10679722D01*
X11261548Y-10679722D02*
X11261548Y-10784484D01*
X11356786Y-10784484D02*
X11356786Y-10651150D01*
X11356786Y-10670198D02*
X11366310Y-10660674D01*
X11366310Y-10660674D02*
X11385358Y-10651150D01*
X11385358Y-10651150D02*
X11413929Y-10651150D01*
X11413929Y-10651150D02*
X11432977Y-10660674D01*
X11432977Y-10660674D02*
X11442501Y-10679722D01*
X11442501Y-10679722D02*
X11442501Y-10784484D01*
X11442501Y-10679722D02*
X11452024Y-10660674D01*
X11452024Y-10660674D02*
X11471072Y-10651150D01*
X11471072Y-10651150D02*
X11499643Y-10651150D01*
X11499643Y-10651150D02*
X11518691Y-10660674D01*
X11518691Y-10660674D02*
X11528215Y-10679722D01*
X11528215Y-10679722D02*
X11528215Y-10784484D01*
X11918691Y-10574960D02*
X11747263Y-10832103D01*
X12175834Y-10584484D02*
X12194882Y-10584484D01*
X12194882Y-10584484D02*
X12213929Y-10594008D01*
X12213929Y-10594008D02*
X12223453Y-10603531D01*
X12223453Y-10603531D02*
X12232977Y-10622579D01*
X12232977Y-10622579D02*
X12242501Y-10660674D01*
X12242501Y-10660674D02*
X12242501Y-10708293D01*
X12242501Y-10708293D02*
X12232977Y-10746389D01*
X12232977Y-10746389D02*
X12223453Y-10765436D01*
X12223453Y-10765436D02*
X12213929Y-10774960D01*
X12213929Y-10774960D02*
X12194882Y-10784484D01*
X12194882Y-10784484D02*
X12175834Y-10784484D01*
X12175834Y-10784484D02*
X12156786Y-10774960D01*
X12156786Y-10774960D02*
X12147263Y-10765436D01*
X12147263Y-10765436D02*
X12137739Y-10746389D01*
X12137739Y-10746389D02*
X12128215Y-10708293D01*
X12128215Y-10708293D02*
X12128215Y-10660674D01*
X12128215Y-10660674D02*
X12137739Y-10622579D01*
X12137739Y-10622579D02*
X12147263Y-10603531D01*
X12147263Y-10603531D02*
X12156786Y-10594008D01*
X12156786Y-10594008D02*
X12175834Y-10584484D01*
X12328215Y-10765436D02*
X12337739Y-10774960D01*
X12337739Y-10774960D02*
X12328215Y-10784484D01*
X12328215Y-10784484D02*
X12318691Y-10774960D01*
X12318691Y-10774960D02*
X12328215Y-10765436D01*
X12328215Y-10765436D02*
X12328215Y-10784484D01*
X12461548Y-10584484D02*
X12480596Y-10584484D01*
X12480596Y-10584484D02*
X12499644Y-10594008D01*
X12499644Y-10594008D02*
X12509167Y-10603531D01*
X12509167Y-10603531D02*
X12518691Y-10622579D01*
X12518691Y-10622579D02*
X12528215Y-10660674D01*
X12528215Y-10660674D02*
X12528215Y-10708293D01*
X12528215Y-10708293D02*
X12518691Y-10746389D01*
X12518691Y-10746389D02*
X12509167Y-10765436D01*
X12509167Y-10765436D02*
X12499644Y-10774960D01*
X12499644Y-10774960D02*
X12480596Y-10784484D01*
X12480596Y-10784484D02*
X12461548Y-10784484D01*
X12461548Y-10784484D02*
X12442501Y-10774960D01*
X12442501Y-10774960D02*
X12432977Y-10765436D01*
X12432977Y-10765436D02*
X12423453Y-10746389D01*
X12423453Y-10746389D02*
X12413929Y-10708293D01*
X12413929Y-10708293D02*
X12413929Y-10660674D01*
X12413929Y-10660674D02*
X12423453Y-10622579D01*
X12423453Y-10622579D02*
X12432977Y-10603531D01*
X12432977Y-10603531D02*
X12442501Y-10594008D01*
X12442501Y-10594008D02*
X12461548Y-10584484D01*
X12604406Y-10603531D02*
X12613929Y-10594008D01*
X12613929Y-10594008D02*
X12632977Y-10584484D01*
X12632977Y-10584484D02*
X12680596Y-10584484D01*
X12680596Y-10584484D02*
X12699644Y-10594008D01*
X12699644Y-10594008D02*
X12709167Y-10603531D01*
X12709167Y-10603531D02*
X12718691Y-10622579D01*
X12718691Y-10622579D02*
X12718691Y-10641627D01*
X12718691Y-10641627D02*
X12709167Y-10670198D01*
X12709167Y-10670198D02*
X12594882Y-10784484D01*
X12594882Y-10784484D02*
X12718691Y-10784484D01*
X12785358Y-10584484D02*
X12909167Y-10584484D01*
X12909167Y-10584484D02*
X12842501Y-10660674D01*
X12842501Y-10660674D02*
X12871072Y-10660674D01*
X12871072Y-10660674D02*
X12890120Y-10670198D01*
X12890120Y-10670198D02*
X12899644Y-10679722D01*
X12899644Y-10679722D02*
X12909167Y-10698770D01*
X12909167Y-10698770D02*
X12909167Y-10746389D01*
X12909167Y-10746389D02*
X12899644Y-10765436D01*
X12899644Y-10765436D02*
X12890120Y-10774960D01*
X12890120Y-10774960D02*
X12871072Y-10784484D01*
X12871072Y-10784484D02*
X12813929Y-10784484D01*
X12813929Y-10784484D02*
X12794882Y-10774960D01*
X12794882Y-10774960D02*
X12785358Y-10765436D01*
X13080596Y-10584484D02*
X13042501Y-10584484D01*
X13042501Y-10584484D02*
X13023453Y-10594008D01*
X13023453Y-10594008D02*
X13013929Y-10603531D01*
X13013929Y-10603531D02*
X12994882Y-10632103D01*
X12994882Y-10632103D02*
X12985358Y-10670198D01*
X12985358Y-10670198D02*
X12985358Y-10746389D01*
X12985358Y-10746389D02*
X12994882Y-10765436D01*
X12994882Y-10765436D02*
X13004406Y-10774960D01*
X13004406Y-10774960D02*
X13023453Y-10784484D01*
X13023453Y-10784484D02*
X13061548Y-10784484D01*
X13061548Y-10784484D02*
X13080596Y-10774960D01*
X13080596Y-10774960D02*
X13090120Y-10765436D01*
X13090120Y-10765436D02*
X13099644Y-10746389D01*
X13099644Y-10746389D02*
X13099644Y-10698770D01*
X13099644Y-10698770D02*
X13090120Y-10679722D01*
X13090120Y-10679722D02*
X13080596Y-10670198D01*
X13080596Y-10670198D02*
X13061548Y-10660674D01*
X13061548Y-10660674D02*
X13023453Y-10660674D01*
X13023453Y-10660674D02*
X13004406Y-10670198D01*
X13004406Y-10670198D02*
X12994882Y-10679722D01*
X12994882Y-10679722D02*
X12985358Y-10698770D01*
X13175834Y-10584484D02*
X13175834Y-10622579D01*
X13252025Y-10584484D02*
X13252025Y-10622579D01*
X13547263Y-10860674D02*
X13537739Y-10851150D01*
X13537739Y-10851150D02*
X13518691Y-10822579D01*
X13518691Y-10822579D02*
X13509168Y-10803531D01*
X13509168Y-10803531D02*
X13499644Y-10774960D01*
X13499644Y-10774960D02*
X13490120Y-10727341D01*
X13490120Y-10727341D02*
X13490120Y-10689246D01*
X13490120Y-10689246D02*
X13499644Y-10641627D01*
X13499644Y-10641627D02*
X13509168Y-10613055D01*
X13509168Y-10613055D02*
X13518691Y-10594008D01*
X13518691Y-10594008D02*
X13537739Y-10565436D01*
X13537739Y-10565436D02*
X13547263Y-10555912D01*
X13661548Y-10584484D02*
X13680596Y-10584484D01*
X13680596Y-10584484D02*
X13699644Y-10594008D01*
X13699644Y-10594008D02*
X13709168Y-10603531D01*
X13709168Y-10603531D02*
X13718691Y-10622579D01*
X13718691Y-10622579D02*
X13728215Y-10660674D01*
X13728215Y-10660674D02*
X13728215Y-10708293D01*
X13728215Y-10708293D02*
X13718691Y-10746389D01*
X13718691Y-10746389D02*
X13709168Y-10765436D01*
X13709168Y-10765436D02*
X13699644Y-10774960D01*
X13699644Y-10774960D02*
X13680596Y-10784484D01*
X13680596Y-10784484D02*
X13661548Y-10784484D01*
X13661548Y-10784484D02*
X13642501Y-10774960D01*
X13642501Y-10774960D02*
X13632977Y-10765436D01*
X13632977Y-10765436D02*
X13623453Y-10746389D01*
X13623453Y-10746389D02*
X13613929Y-10708293D01*
X13613929Y-10708293D02*
X13613929Y-10660674D01*
X13613929Y-10660674D02*
X13623453Y-10622579D01*
X13623453Y-10622579D02*
X13632977Y-10603531D01*
X13632977Y-10603531D02*
X13642501Y-10594008D01*
X13642501Y-10594008D02*
X13661548Y-10584484D01*
X13966310Y-10784484D02*
X13966310Y-10584484D01*
X14052025Y-10784484D02*
X14052025Y-10679722D01*
X14052025Y-10679722D02*
X14042501Y-10660674D01*
X14042501Y-10660674D02*
X14023453Y-10651150D01*
X14023453Y-10651150D02*
X13994882Y-10651150D01*
X13994882Y-10651150D02*
X13975834Y-10660674D01*
X13975834Y-10660674D02*
X13966310Y-10670198D01*
X14175834Y-10784484D02*
X14156787Y-10774960D01*
X14156787Y-10774960D02*
X14147263Y-10765436D01*
X14147263Y-10765436D02*
X14137739Y-10746389D01*
X14137739Y-10746389D02*
X14137739Y-10689246D01*
X14137739Y-10689246D02*
X14147263Y-10670198D01*
X14147263Y-10670198D02*
X14156787Y-10660674D01*
X14156787Y-10660674D02*
X14175834Y-10651150D01*
X14175834Y-10651150D02*
X14204406Y-10651150D01*
X14204406Y-10651150D02*
X14223453Y-10660674D01*
X14223453Y-10660674D02*
X14232977Y-10670198D01*
X14232977Y-10670198D02*
X14242501Y-10689246D01*
X14242501Y-10689246D02*
X14242501Y-10746389D01*
X14242501Y-10746389D02*
X14232977Y-10765436D01*
X14232977Y-10765436D02*
X14223453Y-10774960D01*
X14223453Y-10774960D02*
X14204406Y-10784484D01*
X14204406Y-10784484D02*
X14175834Y-10784484D01*
X14356787Y-10784484D02*
X14337739Y-10774960D01*
X14337739Y-10774960D02*
X14328215Y-10755912D01*
X14328215Y-10755912D02*
X14328215Y-10584484D01*
X14509168Y-10774960D02*
X14490120Y-10784484D01*
X14490120Y-10784484D02*
X14452025Y-10784484D01*
X14452025Y-10784484D02*
X14432977Y-10774960D01*
X14432977Y-10774960D02*
X14423453Y-10755912D01*
X14423453Y-10755912D02*
X14423453Y-10679722D01*
X14423453Y-10679722D02*
X14432977Y-10660674D01*
X14432977Y-10660674D02*
X14452025Y-10651150D01*
X14452025Y-10651150D02*
X14490120Y-10651150D01*
X14490120Y-10651150D02*
X14509168Y-10660674D01*
X14509168Y-10660674D02*
X14518691Y-10679722D01*
X14518691Y-10679722D02*
X14518691Y-10698770D01*
X14518691Y-10698770D02*
X14423453Y-10717817D01*
X14594882Y-10774960D02*
X14613930Y-10784484D01*
X14613930Y-10784484D02*
X14652025Y-10784484D01*
X14652025Y-10784484D02*
X14671072Y-10774960D01*
X14671072Y-10774960D02*
X14680596Y-10755912D01*
X14680596Y-10755912D02*
X14680596Y-10746389D01*
X14680596Y-10746389D02*
X14671072Y-10727341D01*
X14671072Y-10727341D02*
X14652025Y-10717817D01*
X14652025Y-10717817D02*
X14623453Y-10717817D01*
X14623453Y-10717817D02*
X14604406Y-10708293D01*
X14604406Y-10708293D02*
X14594882Y-10689246D01*
X14594882Y-10689246D02*
X14594882Y-10679722D01*
X14594882Y-10679722D02*
X14604406Y-10660674D01*
X14604406Y-10660674D02*
X14623453Y-10651150D01*
X14623453Y-10651150D02*
X14652025Y-10651150D01*
X14652025Y-10651150D02*
X14671072Y-10660674D01*
X14918692Y-10708293D02*
X15071073Y-10708293D01*
X14994882Y-10784484D02*
X14994882Y-10632103D01*
X15404406Y-10651150D02*
X15404406Y-10784484D01*
X15356787Y-10574960D02*
X15309168Y-10717817D01*
X15309168Y-10717817D02*
X15432977Y-10717817D01*
X15652025Y-10774960D02*
X15671073Y-10784484D01*
X15671073Y-10784484D02*
X15709168Y-10784484D01*
X15709168Y-10784484D02*
X15728215Y-10774960D01*
X15728215Y-10774960D02*
X15737739Y-10755912D01*
X15737739Y-10755912D02*
X15737739Y-10746389D01*
X15737739Y-10746389D02*
X15728215Y-10727341D01*
X15728215Y-10727341D02*
X15709168Y-10717817D01*
X15709168Y-10717817D02*
X15680596Y-10717817D01*
X15680596Y-10717817D02*
X15661549Y-10708293D01*
X15661549Y-10708293D02*
X15652025Y-10689246D01*
X15652025Y-10689246D02*
X15652025Y-10679722D01*
X15652025Y-10679722D02*
X15661549Y-10660674D01*
X15661549Y-10660674D02*
X15680596Y-10651150D01*
X15680596Y-10651150D02*
X15709168Y-10651150D01*
X15709168Y-10651150D02*
X15728215Y-10660674D01*
X15852025Y-10784484D02*
X15832977Y-10774960D01*
X15832977Y-10774960D02*
X15823454Y-10755912D01*
X15823454Y-10755912D02*
X15823454Y-10584484D01*
X15956787Y-10784484D02*
X15937739Y-10774960D01*
X15937739Y-10774960D02*
X15928215Y-10765436D01*
X15928215Y-10765436D02*
X15918692Y-10746389D01*
X15918692Y-10746389D02*
X15918692Y-10689246D01*
X15918692Y-10689246D02*
X15928215Y-10670198D01*
X15928215Y-10670198D02*
X15937739Y-10660674D01*
X15937739Y-10660674D02*
X15956787Y-10651150D01*
X15956787Y-10651150D02*
X15985358Y-10651150D01*
X15985358Y-10651150D02*
X16004406Y-10660674D01*
X16004406Y-10660674D02*
X16013930Y-10670198D01*
X16013930Y-10670198D02*
X16023454Y-10689246D01*
X16023454Y-10689246D02*
X16023454Y-10746389D01*
X16023454Y-10746389D02*
X16013930Y-10765436D01*
X16013930Y-10765436D02*
X16004406Y-10774960D01*
X16004406Y-10774960D02*
X15985358Y-10784484D01*
X15985358Y-10784484D02*
X15956787Y-10784484D01*
X16080596Y-10651150D02*
X16156787Y-10651150D01*
X16109168Y-10584484D02*
X16109168Y-10755912D01*
X16109168Y-10755912D02*
X16118692Y-10774960D01*
X16118692Y-10774960D02*
X16137739Y-10784484D01*
X16137739Y-10784484D02*
X16156787Y-10784484D01*
X16213930Y-10774960D02*
X16232977Y-10784484D01*
X16232977Y-10784484D02*
X16271073Y-10784484D01*
X16271073Y-10784484D02*
X16290120Y-10774960D01*
X16290120Y-10774960D02*
X16299644Y-10755912D01*
X16299644Y-10755912D02*
X16299644Y-10746389D01*
X16299644Y-10746389D02*
X16290120Y-10727341D01*
X16290120Y-10727341D02*
X16271073Y-10717817D01*
X16271073Y-10717817D02*
X16242501Y-10717817D01*
X16242501Y-10717817D02*
X16223454Y-10708293D01*
X16223454Y-10708293D02*
X16213930Y-10689246D01*
X16213930Y-10689246D02*
X16213930Y-10679722D01*
X16213930Y-10679722D02*
X16223454Y-10660674D01*
X16223454Y-10660674D02*
X16242501Y-10651150D01*
X16242501Y-10651150D02*
X16271073Y-10651150D01*
X16271073Y-10651150D02*
X16290120Y-10660674D01*
X16366311Y-10860674D02*
X16375835Y-10851150D01*
X16375835Y-10851150D02*
X16394882Y-10822579D01*
X16394882Y-10822579D02*
X16404406Y-10803531D01*
X16404406Y-10803531D02*
X16413930Y-10774960D01*
X16413930Y-10774960D02*
X16423454Y-10727341D01*
X16423454Y-10727341D02*
X16423454Y-10689246D01*
X16423454Y-10689246D02*
X16413930Y-10641627D01*
X16413930Y-10641627D02*
X16404406Y-10613055D01*
X16404406Y-10613055D02*
X16394882Y-10594008D01*
X16394882Y-10594008D02*
X16375835Y-10565436D01*
X16375835Y-10565436D02*
X16366311Y-10555912D01*
D11*
X9922200Y-10907000D02*
X9922200Y-11007000D01*
X9872200Y-10957000D02*
X9972200Y-10957000D01*
D10*
X10337739Y-11048484D02*
X10223453Y-11048484D01*
X10280596Y-11048484D02*
X10280596Y-10848484D01*
X10280596Y-10848484D02*
X10261548Y-10877055D01*
X10261548Y-10877055D02*
X10242501Y-10896103D01*
X10242501Y-10896103D02*
X10223453Y-10905627D01*
X10423453Y-11029436D02*
X10432977Y-11038960D01*
X10432977Y-11038960D02*
X10423453Y-11048484D01*
X10423453Y-11048484D02*
X10413929Y-11038960D01*
X10413929Y-11038960D02*
X10423453Y-11029436D01*
X10423453Y-11029436D02*
X10423453Y-11048484D01*
X10556786Y-10848484D02*
X10575834Y-10848484D01*
X10575834Y-10848484D02*
X10594882Y-10858008D01*
X10594882Y-10858008D02*
X10604405Y-10867531D01*
X10604405Y-10867531D02*
X10613929Y-10886579D01*
X10613929Y-10886579D02*
X10623453Y-10924674D01*
X10623453Y-10924674D02*
X10623453Y-10972293D01*
X10623453Y-10972293D02*
X10613929Y-11010389D01*
X10613929Y-11010389D02*
X10604405Y-11029436D01*
X10604405Y-11029436D02*
X10594882Y-11038960D01*
X10594882Y-11038960D02*
X10575834Y-11048484D01*
X10575834Y-11048484D02*
X10556786Y-11048484D01*
X10556786Y-11048484D02*
X10537739Y-11038960D01*
X10537739Y-11038960D02*
X10528215Y-11029436D01*
X10528215Y-11029436D02*
X10518691Y-11010389D01*
X10518691Y-11010389D02*
X10509167Y-10972293D01*
X10509167Y-10972293D02*
X10509167Y-10924674D01*
X10509167Y-10924674D02*
X10518691Y-10886579D01*
X10518691Y-10886579D02*
X10528215Y-10867531D01*
X10528215Y-10867531D02*
X10537739Y-10858008D01*
X10537739Y-10858008D02*
X10556786Y-10848484D01*
X10747263Y-10848484D02*
X10766310Y-10848484D01*
X10766310Y-10848484D02*
X10785358Y-10858008D01*
X10785358Y-10858008D02*
X10794882Y-10867531D01*
X10794882Y-10867531D02*
X10804405Y-10886579D01*
X10804405Y-10886579D02*
X10813929Y-10924674D01*
X10813929Y-10924674D02*
X10813929Y-10972293D01*
X10813929Y-10972293D02*
X10804405Y-11010389D01*
X10804405Y-11010389D02*
X10794882Y-11029436D01*
X10794882Y-11029436D02*
X10785358Y-11038960D01*
X10785358Y-11038960D02*
X10766310Y-11048484D01*
X10766310Y-11048484D02*
X10747263Y-11048484D01*
X10747263Y-11048484D02*
X10728215Y-11038960D01*
X10728215Y-11038960D02*
X10718691Y-11029436D01*
X10718691Y-11029436D02*
X10709167Y-11010389D01*
X10709167Y-11010389D02*
X10699644Y-10972293D01*
X10699644Y-10972293D02*
X10699644Y-10924674D01*
X10699644Y-10924674D02*
X10709167Y-10886579D01*
X10709167Y-10886579D02*
X10718691Y-10867531D01*
X10718691Y-10867531D02*
X10728215Y-10858008D01*
X10728215Y-10858008D02*
X10747263Y-10848484D01*
X10937739Y-10848484D02*
X10956786Y-10848484D01*
X10956786Y-10848484D02*
X10975834Y-10858008D01*
X10975834Y-10858008D02*
X10985358Y-10867531D01*
X10985358Y-10867531D02*
X10994882Y-10886579D01*
X10994882Y-10886579D02*
X11004405Y-10924674D01*
X11004405Y-10924674D02*
X11004405Y-10972293D01*
X11004405Y-10972293D02*
X10994882Y-11010389D01*
X10994882Y-11010389D02*
X10985358Y-11029436D01*
X10985358Y-11029436D02*
X10975834Y-11038960D01*
X10975834Y-11038960D02*
X10956786Y-11048484D01*
X10956786Y-11048484D02*
X10937739Y-11048484D01*
X10937739Y-11048484D02*
X10918691Y-11038960D01*
X10918691Y-11038960D02*
X10909167Y-11029436D01*
X10909167Y-11029436D02*
X10899644Y-11010389D01*
X10899644Y-11010389D02*
X10890120Y-10972293D01*
X10890120Y-10972293D02*
X10890120Y-10924674D01*
X10890120Y-10924674D02*
X10899644Y-10886579D01*
X10899644Y-10886579D02*
X10909167Y-10867531D01*
X10909167Y-10867531D02*
X10918691Y-10858008D01*
X10918691Y-10858008D02*
X10937739Y-10848484D01*
X11090120Y-11048484D02*
X11090120Y-10915150D01*
X11090120Y-10934198D02*
X11099644Y-10924674D01*
X11099644Y-10924674D02*
X11118691Y-10915150D01*
X11118691Y-10915150D02*
X11147263Y-10915150D01*
X11147263Y-10915150D02*
X11166310Y-10924674D01*
X11166310Y-10924674D02*
X11175834Y-10943722D01*
X11175834Y-10943722D02*
X11175834Y-11048484D01*
X11175834Y-10943722D02*
X11185358Y-10924674D01*
X11185358Y-10924674D02*
X11204405Y-10915150D01*
X11204405Y-10915150D02*
X11232977Y-10915150D01*
X11232977Y-10915150D02*
X11252024Y-10924674D01*
X11252024Y-10924674D02*
X11261548Y-10943722D01*
X11261548Y-10943722D02*
X11261548Y-11048484D01*
X11356786Y-11048484D02*
X11356786Y-10915150D01*
X11356786Y-10934198D02*
X11366310Y-10924674D01*
X11366310Y-10924674D02*
X11385358Y-10915150D01*
X11385358Y-10915150D02*
X11413929Y-10915150D01*
X11413929Y-10915150D02*
X11432977Y-10924674D01*
X11432977Y-10924674D02*
X11442501Y-10943722D01*
X11442501Y-10943722D02*
X11442501Y-11048484D01*
X11442501Y-10943722D02*
X11452024Y-10924674D01*
X11452024Y-10924674D02*
X11471072Y-10915150D01*
X11471072Y-10915150D02*
X11499643Y-10915150D01*
X11499643Y-10915150D02*
X11518691Y-10924674D01*
X11518691Y-10924674D02*
X11528215Y-10943722D01*
X11528215Y-10943722D02*
X11528215Y-11048484D01*
X11918691Y-10838960D02*
X11747263Y-11096103D01*
X12175834Y-10848484D02*
X12194882Y-10848484D01*
X12194882Y-10848484D02*
X12213929Y-10858008D01*
X12213929Y-10858008D02*
X12223453Y-10867531D01*
X12223453Y-10867531D02*
X12232977Y-10886579D01*
X12232977Y-10886579D02*
X12242501Y-10924674D01*
X12242501Y-10924674D02*
X12242501Y-10972293D01*
X12242501Y-10972293D02*
X12232977Y-11010389D01*
X12232977Y-11010389D02*
X12223453Y-11029436D01*
X12223453Y-11029436D02*
X12213929Y-11038960D01*
X12213929Y-11038960D02*
X12194882Y-11048484D01*
X12194882Y-11048484D02*
X12175834Y-11048484D01*
X12175834Y-11048484D02*
X12156786Y-11038960D01*
X12156786Y-11038960D02*
X12147263Y-11029436D01*
X12147263Y-11029436D02*
X12137739Y-11010389D01*
X12137739Y-11010389D02*
X12128215Y-10972293D01*
X12128215Y-10972293D02*
X12128215Y-10924674D01*
X12128215Y-10924674D02*
X12137739Y-10886579D01*
X12137739Y-10886579D02*
X12147263Y-10867531D01*
X12147263Y-10867531D02*
X12156786Y-10858008D01*
X12156786Y-10858008D02*
X12175834Y-10848484D01*
X12328215Y-11029436D02*
X12337739Y-11038960D01*
X12337739Y-11038960D02*
X12328215Y-11048484D01*
X12328215Y-11048484D02*
X12318691Y-11038960D01*
X12318691Y-11038960D02*
X12328215Y-11029436D01*
X12328215Y-11029436D02*
X12328215Y-11048484D01*
X12461548Y-10848484D02*
X12480596Y-10848484D01*
X12480596Y-10848484D02*
X12499644Y-10858008D01*
X12499644Y-10858008D02*
X12509167Y-10867531D01*
X12509167Y-10867531D02*
X12518691Y-10886579D01*
X12518691Y-10886579D02*
X12528215Y-10924674D01*
X12528215Y-10924674D02*
X12528215Y-10972293D01*
X12528215Y-10972293D02*
X12518691Y-11010389D01*
X12518691Y-11010389D02*
X12509167Y-11029436D01*
X12509167Y-11029436D02*
X12499644Y-11038960D01*
X12499644Y-11038960D02*
X12480596Y-11048484D01*
X12480596Y-11048484D02*
X12461548Y-11048484D01*
X12461548Y-11048484D02*
X12442501Y-11038960D01*
X12442501Y-11038960D02*
X12432977Y-11029436D01*
X12432977Y-11029436D02*
X12423453Y-11010389D01*
X12423453Y-11010389D02*
X12413929Y-10972293D01*
X12413929Y-10972293D02*
X12413929Y-10924674D01*
X12413929Y-10924674D02*
X12423453Y-10886579D01*
X12423453Y-10886579D02*
X12432977Y-10867531D01*
X12432977Y-10867531D02*
X12442501Y-10858008D01*
X12442501Y-10858008D02*
X12461548Y-10848484D01*
X12594882Y-10848484D02*
X12718691Y-10848484D01*
X12718691Y-10848484D02*
X12652025Y-10924674D01*
X12652025Y-10924674D02*
X12680596Y-10924674D01*
X12680596Y-10924674D02*
X12699644Y-10934198D01*
X12699644Y-10934198D02*
X12709167Y-10943722D01*
X12709167Y-10943722D02*
X12718691Y-10962770D01*
X12718691Y-10962770D02*
X12718691Y-11010389D01*
X12718691Y-11010389D02*
X12709167Y-11029436D01*
X12709167Y-11029436D02*
X12699644Y-11038960D01*
X12699644Y-11038960D02*
X12680596Y-11048484D01*
X12680596Y-11048484D02*
X12623453Y-11048484D01*
X12623453Y-11048484D02*
X12604406Y-11038960D01*
X12604406Y-11038960D02*
X12594882Y-11029436D01*
X12813929Y-11048484D02*
X12852025Y-11048484D01*
X12852025Y-11048484D02*
X12871072Y-11038960D01*
X12871072Y-11038960D02*
X12880596Y-11029436D01*
X12880596Y-11029436D02*
X12899644Y-11000865D01*
X12899644Y-11000865D02*
X12909167Y-10962770D01*
X12909167Y-10962770D02*
X12909167Y-10886579D01*
X12909167Y-10886579D02*
X12899644Y-10867531D01*
X12899644Y-10867531D02*
X12890120Y-10858008D01*
X12890120Y-10858008D02*
X12871072Y-10848484D01*
X12871072Y-10848484D02*
X12832977Y-10848484D01*
X12832977Y-10848484D02*
X12813929Y-10858008D01*
X12813929Y-10858008D02*
X12804406Y-10867531D01*
X12804406Y-10867531D02*
X12794882Y-10886579D01*
X12794882Y-10886579D02*
X12794882Y-10934198D01*
X12794882Y-10934198D02*
X12804406Y-10953246D01*
X12804406Y-10953246D02*
X12813929Y-10962770D01*
X12813929Y-10962770D02*
X12832977Y-10972293D01*
X12832977Y-10972293D02*
X12871072Y-10972293D01*
X12871072Y-10972293D02*
X12890120Y-10962770D01*
X12890120Y-10962770D02*
X12899644Y-10953246D01*
X12899644Y-10953246D02*
X12909167Y-10934198D01*
X13080596Y-10915150D02*
X13080596Y-11048484D01*
X13032977Y-10838960D02*
X12985358Y-10981817D01*
X12985358Y-10981817D02*
X13109167Y-10981817D01*
X13175834Y-10848484D02*
X13175834Y-10886579D01*
X13252025Y-10848484D02*
X13252025Y-10886579D01*
X13547263Y-11124674D02*
X13537739Y-11115150D01*
X13537739Y-11115150D02*
X13518691Y-11086579D01*
X13518691Y-11086579D02*
X13509168Y-11067531D01*
X13509168Y-11067531D02*
X13499644Y-11038960D01*
X13499644Y-11038960D02*
X13490120Y-10991341D01*
X13490120Y-10991341D02*
X13490120Y-10953246D01*
X13490120Y-10953246D02*
X13499644Y-10905627D01*
X13499644Y-10905627D02*
X13509168Y-10877055D01*
X13509168Y-10877055D02*
X13518691Y-10858008D01*
X13518691Y-10858008D02*
X13537739Y-10829436D01*
X13537739Y-10829436D02*
X13547263Y-10819912D01*
X13718691Y-10848484D02*
X13623453Y-10848484D01*
X13623453Y-10848484D02*
X13613929Y-10943722D01*
X13613929Y-10943722D02*
X13623453Y-10934198D01*
X13623453Y-10934198D02*
X13642501Y-10924674D01*
X13642501Y-10924674D02*
X13690120Y-10924674D01*
X13690120Y-10924674D02*
X13709168Y-10934198D01*
X13709168Y-10934198D02*
X13718691Y-10943722D01*
X13718691Y-10943722D02*
X13728215Y-10962770D01*
X13728215Y-10962770D02*
X13728215Y-11010389D01*
X13728215Y-11010389D02*
X13718691Y-11029436D01*
X13718691Y-11029436D02*
X13709168Y-11038960D01*
X13709168Y-11038960D02*
X13690120Y-11048484D01*
X13690120Y-11048484D02*
X13642501Y-11048484D01*
X13642501Y-11048484D02*
X13623453Y-11038960D01*
X13623453Y-11038960D02*
X13613929Y-11029436D01*
X13966310Y-11048484D02*
X13966310Y-10848484D01*
X14052025Y-11048484D02*
X14052025Y-10943722D01*
X14052025Y-10943722D02*
X14042501Y-10924674D01*
X14042501Y-10924674D02*
X14023453Y-10915150D01*
X14023453Y-10915150D02*
X13994882Y-10915150D01*
X13994882Y-10915150D02*
X13975834Y-10924674D01*
X13975834Y-10924674D02*
X13966310Y-10934198D01*
X14175834Y-11048484D02*
X14156787Y-11038960D01*
X14156787Y-11038960D02*
X14147263Y-11029436D01*
X14147263Y-11029436D02*
X14137739Y-11010389D01*
X14137739Y-11010389D02*
X14137739Y-10953246D01*
X14137739Y-10953246D02*
X14147263Y-10934198D01*
X14147263Y-10934198D02*
X14156787Y-10924674D01*
X14156787Y-10924674D02*
X14175834Y-10915150D01*
X14175834Y-10915150D02*
X14204406Y-10915150D01*
X14204406Y-10915150D02*
X14223453Y-10924674D01*
X14223453Y-10924674D02*
X14232977Y-10934198D01*
X14232977Y-10934198D02*
X14242501Y-10953246D01*
X14242501Y-10953246D02*
X14242501Y-11010389D01*
X14242501Y-11010389D02*
X14232977Y-11029436D01*
X14232977Y-11029436D02*
X14223453Y-11038960D01*
X14223453Y-11038960D02*
X14204406Y-11048484D01*
X14204406Y-11048484D02*
X14175834Y-11048484D01*
X14356787Y-11048484D02*
X14337739Y-11038960D01*
X14337739Y-11038960D02*
X14328215Y-11019912D01*
X14328215Y-11019912D02*
X14328215Y-10848484D01*
X14509168Y-11038960D02*
X14490120Y-11048484D01*
X14490120Y-11048484D02*
X14452025Y-11048484D01*
X14452025Y-11048484D02*
X14432977Y-11038960D01*
X14432977Y-11038960D02*
X14423453Y-11019912D01*
X14423453Y-11019912D02*
X14423453Y-10943722D01*
X14423453Y-10943722D02*
X14432977Y-10924674D01*
X14432977Y-10924674D02*
X14452025Y-10915150D01*
X14452025Y-10915150D02*
X14490120Y-10915150D01*
X14490120Y-10915150D02*
X14509168Y-10924674D01*
X14509168Y-10924674D02*
X14518691Y-10943722D01*
X14518691Y-10943722D02*
X14518691Y-10962770D01*
X14518691Y-10962770D02*
X14423453Y-10981817D01*
X14594882Y-11038960D02*
X14613930Y-11048484D01*
X14613930Y-11048484D02*
X14652025Y-11048484D01*
X14652025Y-11048484D02*
X14671072Y-11038960D01*
X14671072Y-11038960D02*
X14680596Y-11019912D01*
X14680596Y-11019912D02*
X14680596Y-11010389D01*
X14680596Y-11010389D02*
X14671072Y-10991341D01*
X14671072Y-10991341D02*
X14652025Y-10981817D01*
X14652025Y-10981817D02*
X14623453Y-10981817D01*
X14623453Y-10981817D02*
X14604406Y-10972293D01*
X14604406Y-10972293D02*
X14594882Y-10953246D01*
X14594882Y-10953246D02*
X14594882Y-10943722D01*
X14594882Y-10943722D02*
X14604406Y-10924674D01*
X14604406Y-10924674D02*
X14623453Y-10915150D01*
X14623453Y-10915150D02*
X14652025Y-10915150D01*
X14652025Y-10915150D02*
X14671072Y-10924674D01*
X14747263Y-11124674D02*
X14756787Y-11115150D01*
X14756787Y-11115150D02*
X14775834Y-11086579D01*
X14775834Y-11086579D02*
X14785358Y-11067531D01*
X14785358Y-11067531D02*
X14794882Y-11038960D01*
X14794882Y-11038960D02*
X14804406Y-10991341D01*
X14804406Y-10991341D02*
X14804406Y-10953246D01*
X14804406Y-10953246D02*
X14794882Y-10905627D01*
X14794882Y-10905627D02*
X14785358Y-10877055D01*
X14785358Y-10877055D02*
X14775834Y-10858008D01*
X14775834Y-10858008D02*
X14756787Y-10829436D01*
X14756787Y-10829436D02*
X14747263Y-10819912D01*
M02*
