%TF.GenerationSoftware,KiCad,Pcbnew,8.0.5*%
%TF.CreationDate,2024-10-01T07:57:53+01:00*%
%TF.ProjectId,RobinDSPS,526f6269-6e44-4535-9053-2e6b69636164,1.1*%
%TF.SameCoordinates,Original*%
%TF.FileFunction,Legend,Top*%
%TF.FilePolarity,Positive*%
%FSLAX46Y46*%
G04 Gerber Fmt 4.6, Leading zero omitted, Abs format (unit mm)*
G04 Created by KiCad (PCBNEW 8.0.5) date 2024-10-01 07:57:53*
%MOMM*%
%LPD*%
G01*
G04 APERTURE LIST*
%ADD10C,0.160000*%
%ADD11C,0.152400*%
%ADD12C,0.120000*%
%ADD13C,0.200000*%
G04 APERTURE END LIST*
D10*
X119685186Y-96719499D02*
X119351853Y-96243308D01*
X119113758Y-96719499D02*
X119113758Y-95719499D01*
X119113758Y-95719499D02*
X119494710Y-95719499D01*
X119494710Y-95719499D02*
X119589948Y-95767118D01*
X119589948Y-95767118D02*
X119637567Y-95814737D01*
X119637567Y-95814737D02*
X119685186Y-95909975D01*
X119685186Y-95909975D02*
X119685186Y-96052832D01*
X119685186Y-96052832D02*
X119637567Y-96148070D01*
X119637567Y-96148070D02*
X119589948Y-96195689D01*
X119589948Y-96195689D02*
X119494710Y-96243308D01*
X119494710Y-96243308D02*
X119113758Y-96243308D01*
X120113758Y-96719499D02*
X120113758Y-95719499D01*
X120113758Y-95719499D02*
X120351853Y-95719499D01*
X120351853Y-95719499D02*
X120494710Y-95767118D01*
X120494710Y-95767118D02*
X120589948Y-95862356D01*
X120589948Y-95862356D02*
X120637567Y-95957594D01*
X120637567Y-95957594D02*
X120685186Y-96148070D01*
X120685186Y-96148070D02*
X120685186Y-96290927D01*
X120685186Y-96290927D02*
X120637567Y-96481403D01*
X120637567Y-96481403D02*
X120589948Y-96576641D01*
X120589948Y-96576641D02*
X120494710Y-96671880D01*
X120494710Y-96671880D02*
X120351853Y-96719499D01*
X120351853Y-96719499D02*
X120113758Y-96719499D01*
X121066139Y-96671880D02*
X121208996Y-96719499D01*
X121208996Y-96719499D02*
X121447091Y-96719499D01*
X121447091Y-96719499D02*
X121542329Y-96671880D01*
X121542329Y-96671880D02*
X121589948Y-96624260D01*
X121589948Y-96624260D02*
X121637567Y-96529022D01*
X121637567Y-96529022D02*
X121637567Y-96433784D01*
X121637567Y-96433784D02*
X121589948Y-96338546D01*
X121589948Y-96338546D02*
X121542329Y-96290927D01*
X121542329Y-96290927D02*
X121447091Y-96243308D01*
X121447091Y-96243308D02*
X121256615Y-96195689D01*
X121256615Y-96195689D02*
X121161377Y-96148070D01*
X121161377Y-96148070D02*
X121113758Y-96100451D01*
X121113758Y-96100451D02*
X121066139Y-96005213D01*
X121066139Y-96005213D02*
X121066139Y-95909975D01*
X121066139Y-95909975D02*
X121113758Y-95814737D01*
X121113758Y-95814737D02*
X121161377Y-95767118D01*
X121161377Y-95767118D02*
X121256615Y-95719499D01*
X121256615Y-95719499D02*
X121494710Y-95719499D01*
X121494710Y-95719499D02*
X121637567Y-95767118D01*
X122066139Y-96719499D02*
X122066139Y-95719499D01*
X122066139Y-95719499D02*
X122447091Y-95719499D01*
X122447091Y-95719499D02*
X122542329Y-95767118D01*
X122542329Y-95767118D02*
X122589948Y-95814737D01*
X122589948Y-95814737D02*
X122637567Y-95909975D01*
X122637567Y-95909975D02*
X122637567Y-96052832D01*
X122637567Y-96052832D02*
X122589948Y-96148070D01*
X122589948Y-96148070D02*
X122542329Y-96195689D01*
X122542329Y-96195689D02*
X122447091Y-96243308D01*
X122447091Y-96243308D02*
X122066139Y-96243308D01*
X123399472Y-96195689D02*
X123542329Y-96243308D01*
X123542329Y-96243308D02*
X123589948Y-96290927D01*
X123589948Y-96290927D02*
X123637567Y-96386165D01*
X123637567Y-96386165D02*
X123637567Y-96529022D01*
X123637567Y-96529022D02*
X123589948Y-96624260D01*
X123589948Y-96624260D02*
X123542329Y-96671880D01*
X123542329Y-96671880D02*
X123447091Y-96719499D01*
X123447091Y-96719499D02*
X123066139Y-96719499D01*
X123066139Y-96719499D02*
X123066139Y-95719499D01*
X123066139Y-95719499D02*
X123399472Y-95719499D01*
X123399472Y-95719499D02*
X123494710Y-95767118D01*
X123494710Y-95767118D02*
X123542329Y-95814737D01*
X123542329Y-95814737D02*
X123589948Y-95909975D01*
X123589948Y-95909975D02*
X123589948Y-96005213D01*
X123589948Y-96005213D02*
X123542329Y-96100451D01*
X123542329Y-96100451D02*
X123494710Y-96148070D01*
X123494710Y-96148070D02*
X123399472Y-96195689D01*
X123399472Y-96195689D02*
X123066139Y-96195689D01*
X124542329Y-95719499D02*
X124066139Y-95719499D01*
X124066139Y-95719499D02*
X124018520Y-96195689D01*
X124018520Y-96195689D02*
X124066139Y-96148070D01*
X124066139Y-96148070D02*
X124161377Y-96100451D01*
X124161377Y-96100451D02*
X124399472Y-96100451D01*
X124399472Y-96100451D02*
X124494710Y-96148070D01*
X124494710Y-96148070D02*
X124542329Y-96195689D01*
X124542329Y-96195689D02*
X124589948Y-96290927D01*
X124589948Y-96290927D02*
X124589948Y-96529022D01*
X124589948Y-96529022D02*
X124542329Y-96624260D01*
X124542329Y-96624260D02*
X124494710Y-96671880D01*
X124494710Y-96671880D02*
X124399472Y-96719499D01*
X124399472Y-96719499D02*
X124161377Y-96719499D01*
X124161377Y-96719499D02*
X124066139Y-96671880D01*
X124066139Y-96671880D02*
X124018520Y-96624260D01*
X124923282Y-95719499D02*
X125542329Y-95719499D01*
X125542329Y-95719499D02*
X125208996Y-96100451D01*
X125208996Y-96100451D02*
X125351853Y-96100451D01*
X125351853Y-96100451D02*
X125447091Y-96148070D01*
X125447091Y-96148070D02*
X125494710Y-96195689D01*
X125494710Y-96195689D02*
X125542329Y-96290927D01*
X125542329Y-96290927D02*
X125542329Y-96529022D01*
X125542329Y-96529022D02*
X125494710Y-96624260D01*
X125494710Y-96624260D02*
X125447091Y-96671880D01*
X125447091Y-96671880D02*
X125351853Y-96719499D01*
X125351853Y-96719499D02*
X125066139Y-96719499D01*
X125066139Y-96719499D02*
X124970901Y-96671880D01*
X124970901Y-96671880D02*
X124923282Y-96624260D01*
X125875663Y-95719499D02*
X126494710Y-95719499D01*
X126494710Y-95719499D02*
X126161377Y-96100451D01*
X126161377Y-96100451D02*
X126304234Y-96100451D01*
X126304234Y-96100451D02*
X126399472Y-96148070D01*
X126399472Y-96148070D02*
X126447091Y-96195689D01*
X126447091Y-96195689D02*
X126494710Y-96290927D01*
X126494710Y-96290927D02*
X126494710Y-96529022D01*
X126494710Y-96529022D02*
X126447091Y-96624260D01*
X126447091Y-96624260D02*
X126399472Y-96671880D01*
X126399472Y-96671880D02*
X126304234Y-96719499D01*
X126304234Y-96719499D02*
X126018520Y-96719499D01*
X126018520Y-96719499D02*
X125923282Y-96671880D01*
X125923282Y-96671880D02*
X125875663Y-96624260D01*
X127447091Y-96719499D02*
X126875663Y-96719499D01*
X127161377Y-96719499D02*
X127161377Y-95719499D01*
X127161377Y-95719499D02*
X127066139Y-95862356D01*
X127066139Y-95862356D02*
X126970901Y-95957594D01*
X126970901Y-95957594D02*
X126875663Y-96005213D01*
X127828044Y-96433784D02*
X128304234Y-96433784D01*
X127732806Y-96719499D02*
X128066139Y-95719499D01*
X128066139Y-95719499D02*
X128399472Y-96719499D01*
X135185548Y-83197299D02*
X134709358Y-83197299D01*
X134709358Y-83197299D02*
X134661739Y-83673489D01*
X134661739Y-83673489D02*
X134709358Y-83625870D01*
X134709358Y-83625870D02*
X134804596Y-83578251D01*
X134804596Y-83578251D02*
X135042691Y-83578251D01*
X135042691Y-83578251D02*
X135137929Y-83625870D01*
X135137929Y-83625870D02*
X135185548Y-83673489D01*
X135185548Y-83673489D02*
X135233167Y-83768727D01*
X135233167Y-83768727D02*
X135233167Y-84006822D01*
X135233167Y-84006822D02*
X135185548Y-84102060D01*
X135185548Y-84102060D02*
X135137929Y-84149680D01*
X135137929Y-84149680D02*
X135042691Y-84197299D01*
X135042691Y-84197299D02*
X134804596Y-84197299D01*
X134804596Y-84197299D02*
X134709358Y-84149680D01*
X134709358Y-84149680D02*
X134661739Y-84102060D01*
X135518882Y-83197299D02*
X135852215Y-84197299D01*
X135852215Y-84197299D02*
X136185548Y-83197299D01*
X134709358Y-89277299D02*
X134709358Y-88277299D01*
X134709358Y-88277299D02*
X134947453Y-88277299D01*
X134947453Y-88277299D02*
X135090310Y-88324918D01*
X135090310Y-88324918D02*
X135185548Y-88420156D01*
X135185548Y-88420156D02*
X135233167Y-88515394D01*
X135233167Y-88515394D02*
X135280786Y-88705870D01*
X135280786Y-88705870D02*
X135280786Y-88848727D01*
X135280786Y-88848727D02*
X135233167Y-89039203D01*
X135233167Y-89039203D02*
X135185548Y-89134441D01*
X135185548Y-89134441D02*
X135090310Y-89229680D01*
X135090310Y-89229680D02*
X134947453Y-89277299D01*
X134947453Y-89277299D02*
X134709358Y-89277299D01*
X135709358Y-88896346D02*
X136471263Y-88896346D01*
X109029958Y-80809699D02*
X109029958Y-81619222D01*
X109029958Y-81619222D02*
X109077577Y-81714460D01*
X109077577Y-81714460D02*
X109125196Y-81762080D01*
X109125196Y-81762080D02*
X109220434Y-81809699D01*
X109220434Y-81809699D02*
X109410910Y-81809699D01*
X109410910Y-81809699D02*
X109506148Y-81762080D01*
X109506148Y-81762080D02*
X109553767Y-81714460D01*
X109553767Y-81714460D02*
X109601386Y-81619222D01*
X109601386Y-81619222D02*
X109601386Y-80809699D01*
X110029958Y-81762080D02*
X110172815Y-81809699D01*
X110172815Y-81809699D02*
X110410910Y-81809699D01*
X110410910Y-81809699D02*
X110506148Y-81762080D01*
X110506148Y-81762080D02*
X110553767Y-81714460D01*
X110553767Y-81714460D02*
X110601386Y-81619222D01*
X110601386Y-81619222D02*
X110601386Y-81523984D01*
X110601386Y-81523984D02*
X110553767Y-81428746D01*
X110553767Y-81428746D02*
X110506148Y-81381127D01*
X110506148Y-81381127D02*
X110410910Y-81333508D01*
X110410910Y-81333508D02*
X110220434Y-81285889D01*
X110220434Y-81285889D02*
X110125196Y-81238270D01*
X110125196Y-81238270D02*
X110077577Y-81190651D01*
X110077577Y-81190651D02*
X110029958Y-81095413D01*
X110029958Y-81095413D02*
X110029958Y-81000175D01*
X110029958Y-81000175D02*
X110077577Y-80904937D01*
X110077577Y-80904937D02*
X110125196Y-80857318D01*
X110125196Y-80857318D02*
X110220434Y-80809699D01*
X110220434Y-80809699D02*
X110458529Y-80809699D01*
X110458529Y-80809699D02*
X110601386Y-80857318D01*
X111363291Y-81285889D02*
X111506148Y-81333508D01*
X111506148Y-81333508D02*
X111553767Y-81381127D01*
X111553767Y-81381127D02*
X111601386Y-81476365D01*
X111601386Y-81476365D02*
X111601386Y-81619222D01*
X111601386Y-81619222D02*
X111553767Y-81714460D01*
X111553767Y-81714460D02*
X111506148Y-81762080D01*
X111506148Y-81762080D02*
X111410910Y-81809699D01*
X111410910Y-81809699D02*
X111029958Y-81809699D01*
X111029958Y-81809699D02*
X111029958Y-80809699D01*
X111029958Y-80809699D02*
X111363291Y-80809699D01*
X111363291Y-80809699D02*
X111458529Y-80857318D01*
X111458529Y-80857318D02*
X111506148Y-80904937D01*
X111506148Y-80904937D02*
X111553767Y-81000175D01*
X111553767Y-81000175D02*
X111553767Y-81095413D01*
X111553767Y-81095413D02*
X111506148Y-81190651D01*
X111506148Y-81190651D02*
X111458529Y-81238270D01*
X111458529Y-81238270D02*
X111363291Y-81285889D01*
X111363291Y-81285889D02*
X111029958Y-81285889D01*
X112029958Y-81428746D02*
X112791863Y-81428746D01*
X113839481Y-81714460D02*
X113791862Y-81762080D01*
X113791862Y-81762080D02*
X113649005Y-81809699D01*
X113649005Y-81809699D02*
X113553767Y-81809699D01*
X113553767Y-81809699D02*
X113410910Y-81762080D01*
X113410910Y-81762080D02*
X113315672Y-81666841D01*
X113315672Y-81666841D02*
X113268053Y-81571603D01*
X113268053Y-81571603D02*
X113220434Y-81381127D01*
X113220434Y-81381127D02*
X113220434Y-81238270D01*
X113220434Y-81238270D02*
X113268053Y-81047794D01*
X113268053Y-81047794D02*
X113315672Y-80952556D01*
X113315672Y-80952556D02*
X113410910Y-80857318D01*
X113410910Y-80857318D02*
X113553767Y-80809699D01*
X113553767Y-80809699D02*
X113649005Y-80809699D01*
X113649005Y-80809699D02*
X113791862Y-80857318D01*
X113791862Y-80857318D02*
X113839481Y-80904937D01*
X115029958Y-81809699D02*
X115029958Y-80809699D01*
X115029958Y-80809699D02*
X115410910Y-80809699D01*
X115410910Y-80809699D02*
X115506148Y-80857318D01*
X115506148Y-80857318D02*
X115553767Y-80904937D01*
X115553767Y-80904937D02*
X115601386Y-81000175D01*
X115601386Y-81000175D02*
X115601386Y-81143032D01*
X115601386Y-81143032D02*
X115553767Y-81238270D01*
X115553767Y-81238270D02*
X115506148Y-81285889D01*
X115506148Y-81285889D02*
X115410910Y-81333508D01*
X115410910Y-81333508D02*
X115029958Y-81333508D01*
X116172815Y-81809699D02*
X116077577Y-81762080D01*
X116077577Y-81762080D02*
X116029958Y-81714460D01*
X116029958Y-81714460D02*
X115982339Y-81619222D01*
X115982339Y-81619222D02*
X115982339Y-81333508D01*
X115982339Y-81333508D02*
X116029958Y-81238270D01*
X116029958Y-81238270D02*
X116077577Y-81190651D01*
X116077577Y-81190651D02*
X116172815Y-81143032D01*
X116172815Y-81143032D02*
X116315672Y-81143032D01*
X116315672Y-81143032D02*
X116410910Y-81190651D01*
X116410910Y-81190651D02*
X116458529Y-81238270D01*
X116458529Y-81238270D02*
X116506148Y-81333508D01*
X116506148Y-81333508D02*
X116506148Y-81619222D01*
X116506148Y-81619222D02*
X116458529Y-81714460D01*
X116458529Y-81714460D02*
X116410910Y-81762080D01*
X116410910Y-81762080D02*
X116315672Y-81809699D01*
X116315672Y-81809699D02*
X116172815Y-81809699D01*
X116839482Y-81143032D02*
X117029958Y-81809699D01*
X117029958Y-81809699D02*
X117220434Y-81333508D01*
X117220434Y-81333508D02*
X117410910Y-81809699D01*
X117410910Y-81809699D02*
X117601386Y-81143032D01*
X118363291Y-81762080D02*
X118268053Y-81809699D01*
X118268053Y-81809699D02*
X118077577Y-81809699D01*
X118077577Y-81809699D02*
X117982339Y-81762080D01*
X117982339Y-81762080D02*
X117934720Y-81666841D01*
X117934720Y-81666841D02*
X117934720Y-81285889D01*
X117934720Y-81285889D02*
X117982339Y-81190651D01*
X117982339Y-81190651D02*
X118077577Y-81143032D01*
X118077577Y-81143032D02*
X118268053Y-81143032D01*
X118268053Y-81143032D02*
X118363291Y-81190651D01*
X118363291Y-81190651D02*
X118410910Y-81285889D01*
X118410910Y-81285889D02*
X118410910Y-81381127D01*
X118410910Y-81381127D02*
X117934720Y-81476365D01*
X118839482Y-81809699D02*
X118839482Y-81143032D01*
X118839482Y-81333508D02*
X118887101Y-81238270D01*
X118887101Y-81238270D02*
X118934720Y-81190651D01*
X118934720Y-81190651D02*
X119029958Y-81143032D01*
X119029958Y-81143032D02*
X119125196Y-81143032D01*
X120172816Y-81762080D02*
X120315673Y-81809699D01*
X120315673Y-81809699D02*
X120553768Y-81809699D01*
X120553768Y-81809699D02*
X120649006Y-81762080D01*
X120649006Y-81762080D02*
X120696625Y-81714460D01*
X120696625Y-81714460D02*
X120744244Y-81619222D01*
X120744244Y-81619222D02*
X120744244Y-81523984D01*
X120744244Y-81523984D02*
X120696625Y-81428746D01*
X120696625Y-81428746D02*
X120649006Y-81381127D01*
X120649006Y-81381127D02*
X120553768Y-81333508D01*
X120553768Y-81333508D02*
X120363292Y-81285889D01*
X120363292Y-81285889D02*
X120268054Y-81238270D01*
X120268054Y-81238270D02*
X120220435Y-81190651D01*
X120220435Y-81190651D02*
X120172816Y-81095413D01*
X120172816Y-81095413D02*
X120172816Y-81000175D01*
X120172816Y-81000175D02*
X120220435Y-80904937D01*
X120220435Y-80904937D02*
X120268054Y-80857318D01*
X120268054Y-80857318D02*
X120363292Y-80809699D01*
X120363292Y-80809699D02*
X120601387Y-80809699D01*
X120601387Y-80809699D02*
X120744244Y-80857318D01*
X121315673Y-81809699D02*
X121220435Y-81762080D01*
X121220435Y-81762080D02*
X121172816Y-81714460D01*
X121172816Y-81714460D02*
X121125197Y-81619222D01*
X121125197Y-81619222D02*
X121125197Y-81333508D01*
X121125197Y-81333508D02*
X121172816Y-81238270D01*
X121172816Y-81238270D02*
X121220435Y-81190651D01*
X121220435Y-81190651D02*
X121315673Y-81143032D01*
X121315673Y-81143032D02*
X121458530Y-81143032D01*
X121458530Y-81143032D02*
X121553768Y-81190651D01*
X121553768Y-81190651D02*
X121601387Y-81238270D01*
X121601387Y-81238270D02*
X121649006Y-81333508D01*
X121649006Y-81333508D02*
X121649006Y-81619222D01*
X121649006Y-81619222D02*
X121601387Y-81714460D01*
X121601387Y-81714460D02*
X121553768Y-81762080D01*
X121553768Y-81762080D02*
X121458530Y-81809699D01*
X121458530Y-81809699D02*
X121315673Y-81809699D01*
X122506149Y-81143032D02*
X122506149Y-81809699D01*
X122077578Y-81143032D02*
X122077578Y-81666841D01*
X122077578Y-81666841D02*
X122125197Y-81762080D01*
X122125197Y-81762080D02*
X122220435Y-81809699D01*
X122220435Y-81809699D02*
X122363292Y-81809699D01*
X122363292Y-81809699D02*
X122458530Y-81762080D01*
X122458530Y-81762080D02*
X122506149Y-81714460D01*
X122982340Y-81809699D02*
X122982340Y-81143032D01*
X122982340Y-81333508D02*
X123029959Y-81238270D01*
X123029959Y-81238270D02*
X123077578Y-81190651D01*
X123077578Y-81190651D02*
X123172816Y-81143032D01*
X123172816Y-81143032D02*
X123268054Y-81143032D01*
X124029959Y-81762080D02*
X123934721Y-81809699D01*
X123934721Y-81809699D02*
X123744245Y-81809699D01*
X123744245Y-81809699D02*
X123649007Y-81762080D01*
X123649007Y-81762080D02*
X123601388Y-81714460D01*
X123601388Y-81714460D02*
X123553769Y-81619222D01*
X123553769Y-81619222D02*
X123553769Y-81333508D01*
X123553769Y-81333508D02*
X123601388Y-81238270D01*
X123601388Y-81238270D02*
X123649007Y-81190651D01*
X123649007Y-81190651D02*
X123744245Y-81143032D01*
X123744245Y-81143032D02*
X123934721Y-81143032D01*
X123934721Y-81143032D02*
X124029959Y-81190651D01*
X124839483Y-81762080D02*
X124744245Y-81809699D01*
X124744245Y-81809699D02*
X124553769Y-81809699D01*
X124553769Y-81809699D02*
X124458531Y-81762080D01*
X124458531Y-81762080D02*
X124410912Y-81666841D01*
X124410912Y-81666841D02*
X124410912Y-81285889D01*
X124410912Y-81285889D02*
X124458531Y-81190651D01*
X124458531Y-81190651D02*
X124553769Y-81143032D01*
X124553769Y-81143032D02*
X124744245Y-81143032D01*
X124744245Y-81143032D02*
X124839483Y-81190651D01*
X124839483Y-81190651D02*
X124887102Y-81285889D01*
X124887102Y-81285889D02*
X124887102Y-81381127D01*
X124887102Y-81381127D02*
X124410912Y-81476365D01*
X126077579Y-81809699D02*
X126077579Y-80809699D01*
X126077579Y-80809699D02*
X126410912Y-81523984D01*
X126410912Y-81523984D02*
X126744245Y-80809699D01*
X126744245Y-80809699D02*
X126744245Y-81809699D01*
X127363293Y-81809699D02*
X127268055Y-81762080D01*
X127268055Y-81762080D02*
X127220436Y-81714460D01*
X127220436Y-81714460D02*
X127172817Y-81619222D01*
X127172817Y-81619222D02*
X127172817Y-81333508D01*
X127172817Y-81333508D02*
X127220436Y-81238270D01*
X127220436Y-81238270D02*
X127268055Y-81190651D01*
X127268055Y-81190651D02*
X127363293Y-81143032D01*
X127363293Y-81143032D02*
X127506150Y-81143032D01*
X127506150Y-81143032D02*
X127601388Y-81190651D01*
X127601388Y-81190651D02*
X127649007Y-81238270D01*
X127649007Y-81238270D02*
X127696626Y-81333508D01*
X127696626Y-81333508D02*
X127696626Y-81619222D01*
X127696626Y-81619222D02*
X127649007Y-81714460D01*
X127649007Y-81714460D02*
X127601388Y-81762080D01*
X127601388Y-81762080D02*
X127506150Y-81809699D01*
X127506150Y-81809699D02*
X127363293Y-81809699D01*
X128553769Y-81809699D02*
X128553769Y-80809699D01*
X128553769Y-81762080D02*
X128458531Y-81809699D01*
X128458531Y-81809699D02*
X128268055Y-81809699D01*
X128268055Y-81809699D02*
X128172817Y-81762080D01*
X128172817Y-81762080D02*
X128125198Y-81714460D01*
X128125198Y-81714460D02*
X128077579Y-81619222D01*
X128077579Y-81619222D02*
X128077579Y-81333508D01*
X128077579Y-81333508D02*
X128125198Y-81238270D01*
X128125198Y-81238270D02*
X128172817Y-81190651D01*
X128172817Y-81190651D02*
X128268055Y-81143032D01*
X128268055Y-81143032D02*
X128458531Y-81143032D01*
X128458531Y-81143032D02*
X128553769Y-81190651D01*
X129458531Y-81143032D02*
X129458531Y-81809699D01*
X129029960Y-81143032D02*
X129029960Y-81666841D01*
X129029960Y-81666841D02*
X129077579Y-81762080D01*
X129077579Y-81762080D02*
X129172817Y-81809699D01*
X129172817Y-81809699D02*
X129315674Y-81809699D01*
X129315674Y-81809699D02*
X129410912Y-81762080D01*
X129410912Y-81762080D02*
X129458531Y-81714460D01*
X130077579Y-81809699D02*
X129982341Y-81762080D01*
X129982341Y-81762080D02*
X129934722Y-81666841D01*
X129934722Y-81666841D02*
X129934722Y-80809699D01*
X130839484Y-81762080D02*
X130744246Y-81809699D01*
X130744246Y-81809699D02*
X130553770Y-81809699D01*
X130553770Y-81809699D02*
X130458532Y-81762080D01*
X130458532Y-81762080D02*
X130410913Y-81666841D01*
X130410913Y-81666841D02*
X130410913Y-81285889D01*
X130410913Y-81285889D02*
X130458532Y-81190651D01*
X130458532Y-81190651D02*
X130553770Y-81143032D01*
X130553770Y-81143032D02*
X130744246Y-81143032D01*
X130744246Y-81143032D02*
X130839484Y-81190651D01*
X130839484Y-81190651D02*
X130887103Y-81285889D01*
X130887103Y-81285889D02*
X130887103Y-81381127D01*
X130887103Y-81381127D02*
X130410913Y-81476365D01*
X134614120Y-85737299D02*
X135233167Y-85737299D01*
X135233167Y-85737299D02*
X134899834Y-86118251D01*
X134899834Y-86118251D02*
X135042691Y-86118251D01*
X135042691Y-86118251D02*
X135137929Y-86165870D01*
X135137929Y-86165870D02*
X135185548Y-86213489D01*
X135185548Y-86213489D02*
X135233167Y-86308727D01*
X135233167Y-86308727D02*
X135233167Y-86546822D01*
X135233167Y-86546822D02*
X135185548Y-86642060D01*
X135185548Y-86642060D02*
X135137929Y-86689680D01*
X135137929Y-86689680D02*
X135042691Y-86737299D01*
X135042691Y-86737299D02*
X134756977Y-86737299D01*
X134756977Y-86737299D02*
X134661739Y-86689680D01*
X134661739Y-86689680D02*
X134614120Y-86642060D01*
X135518882Y-85737299D02*
X135852215Y-86737299D01*
X135852215Y-86737299D02*
X136185548Y-85737299D01*
X136423644Y-85737299D02*
X137042691Y-85737299D01*
X137042691Y-85737299D02*
X136709358Y-86118251D01*
X136709358Y-86118251D02*
X136852215Y-86118251D01*
X136852215Y-86118251D02*
X136947453Y-86165870D01*
X136947453Y-86165870D02*
X136995072Y-86213489D01*
X136995072Y-86213489D02*
X137042691Y-86308727D01*
X137042691Y-86308727D02*
X137042691Y-86546822D01*
X137042691Y-86546822D02*
X136995072Y-86642060D01*
X136995072Y-86642060D02*
X136947453Y-86689680D01*
X136947453Y-86689680D02*
X136852215Y-86737299D01*
X136852215Y-86737299D02*
X136566501Y-86737299D01*
X136566501Y-86737299D02*
X136471263Y-86689680D01*
X136471263Y-86689680D02*
X136423644Y-86642060D01*
X134709358Y-91817299D02*
X134709358Y-90817299D01*
X134709358Y-90817299D02*
X134947453Y-90817299D01*
X134947453Y-90817299D02*
X135090310Y-90864918D01*
X135090310Y-90864918D02*
X135185548Y-90960156D01*
X135185548Y-90960156D02*
X135233167Y-91055394D01*
X135233167Y-91055394D02*
X135280786Y-91245870D01*
X135280786Y-91245870D02*
X135280786Y-91388727D01*
X135280786Y-91388727D02*
X135233167Y-91579203D01*
X135233167Y-91579203D02*
X135185548Y-91674441D01*
X135185548Y-91674441D02*
X135090310Y-91769680D01*
X135090310Y-91769680D02*
X134947453Y-91817299D01*
X134947453Y-91817299D02*
X134709358Y-91817299D01*
X135709358Y-91436346D02*
X136471263Y-91436346D01*
X136090310Y-91817299D02*
X136090310Y-91055394D01*
X135233167Y-93404918D02*
X135137929Y-93357299D01*
X135137929Y-93357299D02*
X134995072Y-93357299D01*
X134995072Y-93357299D02*
X134852215Y-93404918D01*
X134852215Y-93404918D02*
X134756977Y-93500156D01*
X134756977Y-93500156D02*
X134709358Y-93595394D01*
X134709358Y-93595394D02*
X134661739Y-93785870D01*
X134661739Y-93785870D02*
X134661739Y-93928727D01*
X134661739Y-93928727D02*
X134709358Y-94119203D01*
X134709358Y-94119203D02*
X134756977Y-94214441D01*
X134756977Y-94214441D02*
X134852215Y-94309680D01*
X134852215Y-94309680D02*
X134995072Y-94357299D01*
X134995072Y-94357299D02*
X135090310Y-94357299D01*
X135090310Y-94357299D02*
X135233167Y-94309680D01*
X135233167Y-94309680D02*
X135280786Y-94262060D01*
X135280786Y-94262060D02*
X135280786Y-93928727D01*
X135280786Y-93928727D02*
X135090310Y-93928727D01*
X135709358Y-94357299D02*
X135709358Y-93357299D01*
X135709358Y-93357299D02*
X136280786Y-94357299D01*
X136280786Y-94357299D02*
X136280786Y-93357299D01*
X136756977Y-94357299D02*
X136756977Y-93357299D01*
X136756977Y-93357299D02*
X136995072Y-93357299D01*
X136995072Y-93357299D02*
X137137929Y-93404918D01*
X137137929Y-93404918D02*
X137233167Y-93500156D01*
X137233167Y-93500156D02*
X137280786Y-93595394D01*
X137280786Y-93595394D02*
X137328405Y-93785870D01*
X137328405Y-93785870D02*
X137328405Y-93928727D01*
X137328405Y-93928727D02*
X137280786Y-94119203D01*
X137280786Y-94119203D02*
X137233167Y-94214441D01*
X137233167Y-94214441D02*
X137137929Y-94309680D01*
X137137929Y-94309680D02*
X136995072Y-94357299D01*
X136995072Y-94357299D02*
X136756977Y-94357299D01*
X111582295Y-87719299D02*
X111582295Y-88528822D01*
X111582295Y-88528822D02*
X111629914Y-88624060D01*
X111629914Y-88624060D02*
X111677533Y-88671680D01*
X111677533Y-88671680D02*
X111772771Y-88719299D01*
X111772771Y-88719299D02*
X111963247Y-88719299D01*
X111963247Y-88719299D02*
X112058485Y-88671680D01*
X112058485Y-88671680D02*
X112106104Y-88624060D01*
X112106104Y-88624060D02*
X112153723Y-88528822D01*
X112153723Y-88528822D02*
X112153723Y-87719299D01*
X112582295Y-87814537D02*
X112629914Y-87766918D01*
X112629914Y-87766918D02*
X112725152Y-87719299D01*
X112725152Y-87719299D02*
X112963247Y-87719299D01*
X112963247Y-87719299D02*
X113058485Y-87766918D01*
X113058485Y-87766918D02*
X113106104Y-87814537D01*
X113106104Y-87814537D02*
X113153723Y-87909775D01*
X113153723Y-87909775D02*
X113153723Y-88005013D01*
X113153723Y-88005013D02*
X113106104Y-88147870D01*
X113106104Y-88147870D02*
X112534676Y-88719299D01*
X112534676Y-88719299D02*
X113153723Y-88719299D01*
X113307905Y-95994799D02*
X113307905Y-94994799D01*
X113307905Y-94994799D02*
X113546000Y-94994799D01*
X113546000Y-94994799D02*
X113688857Y-95042418D01*
X113688857Y-95042418D02*
X113784095Y-95137656D01*
X113784095Y-95137656D02*
X113831714Y-95232894D01*
X113831714Y-95232894D02*
X113879333Y-95423370D01*
X113879333Y-95423370D02*
X113879333Y-95566227D01*
X113879333Y-95566227D02*
X113831714Y-95756703D01*
X113831714Y-95756703D02*
X113784095Y-95851941D01*
X113784095Y-95851941D02*
X113688857Y-95947180D01*
X113688857Y-95947180D02*
X113546000Y-95994799D01*
X113546000Y-95994799D02*
X113307905Y-95994799D01*
X114260286Y-95090037D02*
X114307905Y-95042418D01*
X114307905Y-95042418D02*
X114403143Y-94994799D01*
X114403143Y-94994799D02*
X114641238Y-94994799D01*
X114641238Y-94994799D02*
X114736476Y-95042418D01*
X114736476Y-95042418D02*
X114784095Y-95090037D01*
X114784095Y-95090037D02*
X114831714Y-95185275D01*
X114831714Y-95185275D02*
X114831714Y-95280513D01*
X114831714Y-95280513D02*
X114784095Y-95423370D01*
X114784095Y-95423370D02*
X114212667Y-95994799D01*
X114212667Y-95994799D02*
X114831714Y-95994799D01*
X102220733Y-82978899D02*
X101887400Y-82502708D01*
X101649305Y-82978899D02*
X101649305Y-81978899D01*
X101649305Y-81978899D02*
X102030257Y-81978899D01*
X102030257Y-81978899D02*
X102125495Y-82026518D01*
X102125495Y-82026518D02*
X102173114Y-82074137D01*
X102173114Y-82074137D02*
X102220733Y-82169375D01*
X102220733Y-82169375D02*
X102220733Y-82312232D01*
X102220733Y-82312232D02*
X102173114Y-82407470D01*
X102173114Y-82407470D02*
X102125495Y-82455089D01*
X102125495Y-82455089D02*
X102030257Y-82502708D01*
X102030257Y-82502708D02*
X101649305Y-82502708D01*
X103173114Y-82978899D02*
X102601686Y-82978899D01*
X102887400Y-82978899D02*
X102887400Y-81978899D01*
X102887400Y-81978899D02*
X102792162Y-82121756D01*
X102792162Y-82121756D02*
X102696924Y-82216994D01*
X102696924Y-82216994D02*
X102601686Y-82264613D01*
X113088895Y-83540880D02*
X113231752Y-83588499D01*
X113231752Y-83588499D02*
X113469847Y-83588499D01*
X113469847Y-83588499D02*
X113565085Y-83540880D01*
X113565085Y-83540880D02*
X113612704Y-83493260D01*
X113612704Y-83493260D02*
X113660323Y-83398022D01*
X113660323Y-83398022D02*
X113660323Y-83302784D01*
X113660323Y-83302784D02*
X113612704Y-83207546D01*
X113612704Y-83207546D02*
X113565085Y-83159927D01*
X113565085Y-83159927D02*
X113469847Y-83112308D01*
X113469847Y-83112308D02*
X113279371Y-83064689D01*
X113279371Y-83064689D02*
X113184133Y-83017070D01*
X113184133Y-83017070D02*
X113136514Y-82969451D01*
X113136514Y-82969451D02*
X113088895Y-82874213D01*
X113088895Y-82874213D02*
X113088895Y-82778975D01*
X113088895Y-82778975D02*
X113136514Y-82683737D01*
X113136514Y-82683737D02*
X113184133Y-82636118D01*
X113184133Y-82636118D02*
X113279371Y-82588499D01*
X113279371Y-82588499D02*
X113517466Y-82588499D01*
X113517466Y-82588499D02*
X113660323Y-82636118D01*
X114422228Y-83064689D02*
X114565085Y-83112308D01*
X114565085Y-83112308D02*
X114612704Y-83159927D01*
X114612704Y-83159927D02*
X114660323Y-83255165D01*
X114660323Y-83255165D02*
X114660323Y-83398022D01*
X114660323Y-83398022D02*
X114612704Y-83493260D01*
X114612704Y-83493260D02*
X114565085Y-83540880D01*
X114565085Y-83540880D02*
X114469847Y-83588499D01*
X114469847Y-83588499D02*
X114088895Y-83588499D01*
X114088895Y-83588499D02*
X114088895Y-82588499D01*
X114088895Y-82588499D02*
X114422228Y-82588499D01*
X114422228Y-82588499D02*
X114517466Y-82636118D01*
X114517466Y-82636118D02*
X114565085Y-82683737D01*
X114565085Y-82683737D02*
X114612704Y-82778975D01*
X114612704Y-82778975D02*
X114612704Y-82874213D01*
X114612704Y-82874213D02*
X114565085Y-82969451D01*
X114565085Y-82969451D02*
X114517466Y-83017070D01*
X114517466Y-83017070D02*
X114422228Y-83064689D01*
X114422228Y-83064689D02*
X114088895Y-83064689D01*
X115612704Y-83588499D02*
X115041276Y-83588499D01*
X115326990Y-83588499D02*
X115326990Y-82588499D01*
X115326990Y-82588499D02*
X115231752Y-82731356D01*
X115231752Y-82731356D02*
X115136514Y-82826594D01*
X115136514Y-82826594D02*
X115041276Y-82874213D01*
X108378666Y-91046699D02*
X108378666Y-91760984D01*
X108378666Y-91760984D02*
X108331047Y-91903841D01*
X108331047Y-91903841D02*
X108235809Y-91999080D01*
X108235809Y-91999080D02*
X108092952Y-92046699D01*
X108092952Y-92046699D02*
X107997714Y-92046699D01*
X109378666Y-92046699D02*
X108807238Y-92046699D01*
X109092952Y-92046699D02*
X109092952Y-91046699D01*
X109092952Y-91046699D02*
X108997714Y-91189556D01*
X108997714Y-91189556D02*
X108902476Y-91284794D01*
X108902476Y-91284794D02*
X108807238Y-91332413D01*
X109688333Y-83315460D02*
X109640714Y-83363080D01*
X109640714Y-83363080D02*
X109497857Y-83410699D01*
X109497857Y-83410699D02*
X109402619Y-83410699D01*
X109402619Y-83410699D02*
X109259762Y-83363080D01*
X109259762Y-83363080D02*
X109164524Y-83267841D01*
X109164524Y-83267841D02*
X109116905Y-83172603D01*
X109116905Y-83172603D02*
X109069286Y-82982127D01*
X109069286Y-82982127D02*
X109069286Y-82839270D01*
X109069286Y-82839270D02*
X109116905Y-82648794D01*
X109116905Y-82648794D02*
X109164524Y-82553556D01*
X109164524Y-82553556D02*
X109259762Y-82458318D01*
X109259762Y-82458318D02*
X109402619Y-82410699D01*
X109402619Y-82410699D02*
X109497857Y-82410699D01*
X109497857Y-82410699D02*
X109640714Y-82458318D01*
X109640714Y-82458318D02*
X109688333Y-82505937D01*
X110640714Y-83410699D02*
X110069286Y-83410699D01*
X110355000Y-83410699D02*
X110355000Y-82410699D01*
X110355000Y-82410699D02*
X110259762Y-82553556D01*
X110259762Y-82553556D02*
X110164524Y-82648794D01*
X110164524Y-82648794D02*
X110069286Y-82696413D01*
X102296933Y-95704299D02*
X101963600Y-95228108D01*
X101725505Y-95704299D02*
X101725505Y-94704299D01*
X101725505Y-94704299D02*
X102106457Y-94704299D01*
X102106457Y-94704299D02*
X102201695Y-94751918D01*
X102201695Y-94751918D02*
X102249314Y-94799537D01*
X102249314Y-94799537D02*
X102296933Y-94894775D01*
X102296933Y-94894775D02*
X102296933Y-95037632D01*
X102296933Y-95037632D02*
X102249314Y-95132870D01*
X102249314Y-95132870D02*
X102201695Y-95180489D01*
X102201695Y-95180489D02*
X102106457Y-95228108D01*
X102106457Y-95228108D02*
X101725505Y-95228108D01*
X102677886Y-94799537D02*
X102725505Y-94751918D01*
X102725505Y-94751918D02*
X102820743Y-94704299D01*
X102820743Y-94704299D02*
X103058838Y-94704299D01*
X103058838Y-94704299D02*
X103154076Y-94751918D01*
X103154076Y-94751918D02*
X103201695Y-94799537D01*
X103201695Y-94799537D02*
X103249314Y-94894775D01*
X103249314Y-94894775D02*
X103249314Y-94990013D01*
X103249314Y-94990013D02*
X103201695Y-95132870D01*
X103201695Y-95132870D02*
X102630267Y-95704299D01*
X102630267Y-95704299D02*
X103249314Y-95704299D01*
X119049895Y-93662899D02*
X119049895Y-94472422D01*
X119049895Y-94472422D02*
X119097514Y-94567660D01*
X119097514Y-94567660D02*
X119145133Y-94615280D01*
X119145133Y-94615280D02*
X119240371Y-94662899D01*
X119240371Y-94662899D02*
X119430847Y-94662899D01*
X119430847Y-94662899D02*
X119526085Y-94615280D01*
X119526085Y-94615280D02*
X119573704Y-94567660D01*
X119573704Y-94567660D02*
X119621323Y-94472422D01*
X119621323Y-94472422D02*
X119621323Y-93662899D01*
X120621323Y-94662899D02*
X120049895Y-94662899D01*
X120335609Y-94662899D02*
X120335609Y-93662899D01*
X120335609Y-93662899D02*
X120240371Y-93805756D01*
X120240371Y-93805756D02*
X120145133Y-93900994D01*
X120145133Y-93900994D02*
X120049895Y-93948613D01*
X131086266Y-95644099D02*
X131086266Y-96358384D01*
X131086266Y-96358384D02*
X131038647Y-96501241D01*
X131038647Y-96501241D02*
X130943409Y-96596480D01*
X130943409Y-96596480D02*
X130800552Y-96644099D01*
X130800552Y-96644099D02*
X130705314Y-96644099D01*
X131514838Y-95739337D02*
X131562457Y-95691718D01*
X131562457Y-95691718D02*
X131657695Y-95644099D01*
X131657695Y-95644099D02*
X131895790Y-95644099D01*
X131895790Y-95644099D02*
X131991028Y-95691718D01*
X131991028Y-95691718D02*
X132038647Y-95739337D01*
X132038647Y-95739337D02*
X132086266Y-95834575D01*
X132086266Y-95834575D02*
X132086266Y-95929813D01*
X132086266Y-95929813D02*
X132038647Y-96072670D01*
X132038647Y-96072670D02*
X131467219Y-96644099D01*
X131467219Y-96644099D02*
X132086266Y-96644099D01*
X109586733Y-95577299D02*
X109253400Y-95101108D01*
X109015305Y-95577299D02*
X109015305Y-94577299D01*
X109015305Y-94577299D02*
X109396257Y-94577299D01*
X109396257Y-94577299D02*
X109491495Y-94624918D01*
X109491495Y-94624918D02*
X109539114Y-94672537D01*
X109539114Y-94672537D02*
X109586733Y-94767775D01*
X109586733Y-94767775D02*
X109586733Y-94910632D01*
X109586733Y-94910632D02*
X109539114Y-95005870D01*
X109539114Y-95005870D02*
X109491495Y-95053489D01*
X109491495Y-95053489D02*
X109396257Y-95101108D01*
X109396257Y-95101108D02*
X109015305Y-95101108D01*
X109920067Y-94577299D02*
X110539114Y-94577299D01*
X110539114Y-94577299D02*
X110205781Y-94958251D01*
X110205781Y-94958251D02*
X110348638Y-94958251D01*
X110348638Y-94958251D02*
X110443876Y-95005870D01*
X110443876Y-95005870D02*
X110491495Y-95053489D01*
X110491495Y-95053489D02*
X110539114Y-95148727D01*
X110539114Y-95148727D02*
X110539114Y-95386822D01*
X110539114Y-95386822D02*
X110491495Y-95482060D01*
X110491495Y-95482060D02*
X110443876Y-95529680D01*
X110443876Y-95529680D02*
X110348638Y-95577299D01*
X110348638Y-95577299D02*
X110062924Y-95577299D01*
X110062924Y-95577299D02*
X109967686Y-95529680D01*
X109967686Y-95529680D02*
X109920067Y-95482060D01*
X127087333Y-93069060D02*
X127039714Y-93116680D01*
X127039714Y-93116680D02*
X126896857Y-93164299D01*
X126896857Y-93164299D02*
X126801619Y-93164299D01*
X126801619Y-93164299D02*
X126658762Y-93116680D01*
X126658762Y-93116680D02*
X126563524Y-93021441D01*
X126563524Y-93021441D02*
X126515905Y-92926203D01*
X126515905Y-92926203D02*
X126468286Y-92735727D01*
X126468286Y-92735727D02*
X126468286Y-92592870D01*
X126468286Y-92592870D02*
X126515905Y-92402394D01*
X126515905Y-92402394D02*
X126563524Y-92307156D01*
X126563524Y-92307156D02*
X126658762Y-92211918D01*
X126658762Y-92211918D02*
X126801619Y-92164299D01*
X126801619Y-92164299D02*
X126896857Y-92164299D01*
X126896857Y-92164299D02*
X127039714Y-92211918D01*
X127039714Y-92211918D02*
X127087333Y-92259537D01*
X127468286Y-92259537D02*
X127515905Y-92211918D01*
X127515905Y-92211918D02*
X127611143Y-92164299D01*
X127611143Y-92164299D02*
X127849238Y-92164299D01*
X127849238Y-92164299D02*
X127944476Y-92211918D01*
X127944476Y-92211918D02*
X127992095Y-92259537D01*
X127992095Y-92259537D02*
X128039714Y-92354775D01*
X128039714Y-92354775D02*
X128039714Y-92450013D01*
X128039714Y-92450013D02*
X127992095Y-92592870D01*
X127992095Y-92592870D02*
X127420667Y-93164299D01*
X127420667Y-93164299D02*
X128039714Y-93164299D01*
X123290105Y-84807699D02*
X123290105Y-83807699D01*
X123290105Y-83807699D02*
X123528200Y-83807699D01*
X123528200Y-83807699D02*
X123671057Y-83855318D01*
X123671057Y-83855318D02*
X123766295Y-83950556D01*
X123766295Y-83950556D02*
X123813914Y-84045794D01*
X123813914Y-84045794D02*
X123861533Y-84236270D01*
X123861533Y-84236270D02*
X123861533Y-84379127D01*
X123861533Y-84379127D02*
X123813914Y-84569603D01*
X123813914Y-84569603D02*
X123766295Y-84664841D01*
X123766295Y-84664841D02*
X123671057Y-84760080D01*
X123671057Y-84760080D02*
X123528200Y-84807699D01*
X123528200Y-84807699D02*
X123290105Y-84807699D01*
X124813914Y-84807699D02*
X124242486Y-84807699D01*
X124528200Y-84807699D02*
X124528200Y-83807699D01*
X124528200Y-83807699D02*
X124432962Y-83950556D01*
X124432962Y-83950556D02*
X124337724Y-84045794D01*
X124337724Y-84045794D02*
X124242486Y-84093413D01*
D11*
%TO.C,U2*%
X109029500Y-87325200D02*
X109029500Y-88823800D01*
X110934500Y-88823800D02*
X110934500Y-87325200D01*
D12*
%TO.C,D2*%
X113165000Y-90638500D02*
X113165000Y-94698500D01*
X113165000Y-94698500D02*
X115435000Y-94698500D01*
X115435000Y-94698500D02*
X115435000Y-90638500D01*
%TO.C,R1*%
X104918742Y-82027500D02*
X105393258Y-82027500D01*
X104918742Y-83072500D02*
X105393258Y-83072500D01*
%TO.C,SB1*%
X113300000Y-86044000D02*
X113300000Y-84644000D01*
X114000000Y-83944000D02*
X114600000Y-83944000D01*
X114600000Y-86744000D02*
X114000000Y-86744000D01*
X115300000Y-84644000D02*
X115300000Y-86044000D01*
X113300000Y-84644000D02*
G75*
G02*
X114000000Y-83944000I700000J0D01*
G01*
X114000000Y-86744000D02*
G75*
G02*
X113300000Y-86044000I-1J699999D01*
G01*
X114600000Y-83944000D02*
G75*
G02*
X115300000Y-84644000I0J-700000D01*
G01*
X115300000Y-86044000D02*
G75*
G02*
X114600000Y-86744000I-699999J-1D01*
G01*
D13*
%TO.C,J1*%
X99972500Y-84430000D02*
X99972500Y-93370000D01*
X99972500Y-93370000D02*
X100372500Y-93370000D01*
X100372500Y-84430000D02*
X99972500Y-84430000D01*
X104672500Y-84430000D02*
X103772500Y-84430000D01*
X104672500Y-93370000D02*
X103772500Y-93370000D01*
X107872500Y-85600000D02*
G75*
G02*
X107672500Y-85600000I-100000J0D01*
G01*
X107672500Y-85600000D02*
G75*
G02*
X107872500Y-85600000I100000J0D01*
G01*
D12*
%TO.C,C1*%
X110751252Y-83847000D02*
X110228748Y-83847000D01*
X110751252Y-85317000D02*
X110228748Y-85317000D01*
%TO.C,R2*%
X104918742Y-94727500D02*
X105393258Y-94727500D01*
X104918742Y-95772500D02*
X105393258Y-95772500D01*
%TO.C,U1*%
X119156000Y-86266000D02*
X122916000Y-86266000D01*
X119156000Y-93086000D02*
X122916000Y-93086000D01*
X122916000Y-86266000D02*
X122916000Y-87526000D01*
X122916000Y-93086000D02*
X122916000Y-91826000D01*
X117876000Y-86366000D02*
X117636000Y-86036000D01*
X118116000Y-86036000D01*
X117876000Y-86366000D01*
G36*
X117876000Y-86366000D02*
G01*
X117636000Y-86036000D01*
X118116000Y-86036000D01*
X117876000Y-86366000D01*
G37*
%TO.C,J2*%
X130750000Y-82490000D02*
X132080000Y-82490000D01*
X130750000Y-83820000D02*
X130750000Y-82490000D01*
X130750000Y-85090000D02*
X130750000Y-95310000D01*
X130750000Y-85090000D02*
X133410000Y-85090000D01*
X130750000Y-95310000D02*
X133410000Y-95310000D01*
X133410000Y-85090000D02*
X133410000Y-95310000D01*
%TO.C,R3*%
X110156258Y-92949500D02*
X109681742Y-92949500D01*
X110156258Y-93994500D02*
X109681742Y-93994500D01*
%TO.C,C2*%
X126519000Y-89400748D02*
X126519000Y-89923252D01*
X127989000Y-89400748D02*
X127989000Y-89923252D01*
%TO.C,D1*%
X119148000Y-83478000D02*
X119148000Y-85178000D01*
X119148000Y-83478000D02*
X122408000Y-83478000D01*
X119148000Y-85178000D02*
X122408000Y-85178000D01*
%TD*%
M02*
