%TF.GenerationSoftware,KiCad,Pcbnew,8.0.5*%
%TF.CreationDate,2024-10-01T07:57:53+01:00*%
%TF.ProjectId,RobinDSPS,526f6269-6e44-4535-9053-2e6b69636164,1.1*%
%TF.SameCoordinates,Original*%
%TF.FileFunction,Legend,Bot*%
%TF.FilePolarity,Positive*%
%FSLAX46Y46*%
G04 Gerber Fmt 4.6, Leading zero omitted, Abs format (unit mm)*
G04 Created by KiCad (PCBNEW 8.0.5) date 2024-10-01 07:57:53*
%MOMM*%
%LPD*%
G01*
G04 APERTURE LIST*
%ADD10C,0.160000*%
%ADD11C,0.000000*%
G04 APERTURE END LIST*
D10*
X113604067Y-82245200D02*
X129321532Y-82245200D01*
X129321532Y-88437665D01*
X113604067Y-88437665D01*
X113604067Y-82245200D01*
X136546832Y-93404918D02*
X136642070Y-93357299D01*
X136642070Y-93357299D02*
X136784927Y-93357299D01*
X136784927Y-93357299D02*
X136927784Y-93404918D01*
X136927784Y-93404918D02*
X137023022Y-93500156D01*
X137023022Y-93500156D02*
X137070641Y-93595394D01*
X137070641Y-93595394D02*
X137118260Y-93785870D01*
X137118260Y-93785870D02*
X137118260Y-93928727D01*
X137118260Y-93928727D02*
X137070641Y-94119203D01*
X137070641Y-94119203D02*
X137023022Y-94214441D01*
X137023022Y-94214441D02*
X136927784Y-94309680D01*
X136927784Y-94309680D02*
X136784927Y-94357299D01*
X136784927Y-94357299D02*
X136689689Y-94357299D01*
X136689689Y-94357299D02*
X136546832Y-94309680D01*
X136546832Y-94309680D02*
X136499213Y-94262060D01*
X136499213Y-94262060D02*
X136499213Y-93928727D01*
X136499213Y-93928727D02*
X136689689Y-93928727D01*
X136070641Y-94357299D02*
X136070641Y-93357299D01*
X136070641Y-93357299D02*
X135499213Y-94357299D01*
X135499213Y-94357299D02*
X135499213Y-93357299D01*
X135023022Y-94357299D02*
X135023022Y-93357299D01*
X135023022Y-93357299D02*
X134784927Y-93357299D01*
X134784927Y-93357299D02*
X134642070Y-93404918D01*
X134642070Y-93404918D02*
X134546832Y-93500156D01*
X134546832Y-93500156D02*
X134499213Y-93595394D01*
X134499213Y-93595394D02*
X134451594Y-93785870D01*
X134451594Y-93785870D02*
X134451594Y-93928727D01*
X134451594Y-93928727D02*
X134499213Y-94119203D01*
X134499213Y-94119203D02*
X134546832Y-94214441D01*
X134546832Y-94214441D02*
X134642070Y-94309680D01*
X134642070Y-94309680D02*
X134784927Y-94357299D01*
X134784927Y-94357299D02*
X135023022Y-94357299D01*
X135324451Y-83197299D02*
X135800641Y-83197299D01*
X135800641Y-83197299D02*
X135848260Y-83673489D01*
X135848260Y-83673489D02*
X135800641Y-83625870D01*
X135800641Y-83625870D02*
X135705403Y-83578251D01*
X135705403Y-83578251D02*
X135467308Y-83578251D01*
X135467308Y-83578251D02*
X135372070Y-83625870D01*
X135372070Y-83625870D02*
X135324451Y-83673489D01*
X135324451Y-83673489D02*
X135276832Y-83768727D01*
X135276832Y-83768727D02*
X135276832Y-84006822D01*
X135276832Y-84006822D02*
X135324451Y-84102060D01*
X135324451Y-84102060D02*
X135372070Y-84149680D01*
X135372070Y-84149680D02*
X135467308Y-84197299D01*
X135467308Y-84197299D02*
X135705403Y-84197299D01*
X135705403Y-84197299D02*
X135800641Y-84149680D01*
X135800641Y-84149680D02*
X135848260Y-84102060D01*
X134991117Y-83197299D02*
X134657784Y-84197299D01*
X134657784Y-84197299D02*
X134324451Y-83197299D01*
X128500708Y-84889355D02*
X128500708Y-85698878D01*
X128500708Y-85698878D02*
X128453089Y-85794116D01*
X128453089Y-85794116D02*
X128405470Y-85841736D01*
X128405470Y-85841736D02*
X128310232Y-85889355D01*
X128310232Y-85889355D02*
X128119756Y-85889355D01*
X128119756Y-85889355D02*
X128024518Y-85841736D01*
X128024518Y-85841736D02*
X127976899Y-85794116D01*
X127976899Y-85794116D02*
X127929280Y-85698878D01*
X127929280Y-85698878D02*
X127929280Y-84889355D01*
X127500708Y-85841736D02*
X127357851Y-85889355D01*
X127357851Y-85889355D02*
X127119756Y-85889355D01*
X127119756Y-85889355D02*
X127024518Y-85841736D01*
X127024518Y-85841736D02*
X126976899Y-85794116D01*
X126976899Y-85794116D02*
X126929280Y-85698878D01*
X126929280Y-85698878D02*
X126929280Y-85603640D01*
X126929280Y-85603640D02*
X126976899Y-85508402D01*
X126976899Y-85508402D02*
X127024518Y-85460783D01*
X127024518Y-85460783D02*
X127119756Y-85413164D01*
X127119756Y-85413164D02*
X127310232Y-85365545D01*
X127310232Y-85365545D02*
X127405470Y-85317926D01*
X127405470Y-85317926D02*
X127453089Y-85270307D01*
X127453089Y-85270307D02*
X127500708Y-85175069D01*
X127500708Y-85175069D02*
X127500708Y-85079831D01*
X127500708Y-85079831D02*
X127453089Y-84984593D01*
X127453089Y-84984593D02*
X127405470Y-84936974D01*
X127405470Y-84936974D02*
X127310232Y-84889355D01*
X127310232Y-84889355D02*
X127072137Y-84889355D01*
X127072137Y-84889355D02*
X126929280Y-84936974D01*
X126167375Y-85365545D02*
X126024518Y-85413164D01*
X126024518Y-85413164D02*
X125976899Y-85460783D01*
X125976899Y-85460783D02*
X125929280Y-85556021D01*
X125929280Y-85556021D02*
X125929280Y-85698878D01*
X125929280Y-85698878D02*
X125976899Y-85794116D01*
X125976899Y-85794116D02*
X126024518Y-85841736D01*
X126024518Y-85841736D02*
X126119756Y-85889355D01*
X126119756Y-85889355D02*
X126500708Y-85889355D01*
X126500708Y-85889355D02*
X126500708Y-84889355D01*
X126500708Y-84889355D02*
X126167375Y-84889355D01*
X126167375Y-84889355D02*
X126072137Y-84936974D01*
X126072137Y-84936974D02*
X126024518Y-84984593D01*
X126024518Y-84984593D02*
X125976899Y-85079831D01*
X125976899Y-85079831D02*
X125976899Y-85175069D01*
X125976899Y-85175069D02*
X126024518Y-85270307D01*
X126024518Y-85270307D02*
X126072137Y-85317926D01*
X126072137Y-85317926D02*
X126167375Y-85365545D01*
X126167375Y-85365545D02*
X126500708Y-85365545D01*
X125500708Y-85508402D02*
X124738804Y-85508402D01*
X123691185Y-85794116D02*
X123738804Y-85841736D01*
X123738804Y-85841736D02*
X123881661Y-85889355D01*
X123881661Y-85889355D02*
X123976899Y-85889355D01*
X123976899Y-85889355D02*
X124119756Y-85841736D01*
X124119756Y-85841736D02*
X124214994Y-85746497D01*
X124214994Y-85746497D02*
X124262613Y-85651259D01*
X124262613Y-85651259D02*
X124310232Y-85460783D01*
X124310232Y-85460783D02*
X124310232Y-85317926D01*
X124310232Y-85317926D02*
X124262613Y-85127450D01*
X124262613Y-85127450D02*
X124214994Y-85032212D01*
X124214994Y-85032212D02*
X124119756Y-84936974D01*
X124119756Y-84936974D02*
X123976899Y-84889355D01*
X123976899Y-84889355D02*
X123881661Y-84889355D01*
X123881661Y-84889355D02*
X123738804Y-84936974D01*
X123738804Y-84936974D02*
X123691185Y-84984593D01*
X122167375Y-85365545D02*
X122024518Y-85413164D01*
X122024518Y-85413164D02*
X121976899Y-85460783D01*
X121976899Y-85460783D02*
X121929280Y-85556021D01*
X121929280Y-85556021D02*
X121929280Y-85698878D01*
X121929280Y-85698878D02*
X121976899Y-85794116D01*
X121976899Y-85794116D02*
X122024518Y-85841736D01*
X122024518Y-85841736D02*
X122119756Y-85889355D01*
X122119756Y-85889355D02*
X122500708Y-85889355D01*
X122500708Y-85889355D02*
X122500708Y-84889355D01*
X122500708Y-84889355D02*
X122167375Y-84889355D01*
X122167375Y-84889355D02*
X122072137Y-84936974D01*
X122072137Y-84936974D02*
X122024518Y-84984593D01*
X122024518Y-84984593D02*
X121976899Y-85079831D01*
X121976899Y-85079831D02*
X121976899Y-85175069D01*
X121976899Y-85175069D02*
X122024518Y-85270307D01*
X122024518Y-85270307D02*
X122072137Y-85317926D01*
X122072137Y-85317926D02*
X122167375Y-85365545D01*
X122167375Y-85365545D02*
X122500708Y-85365545D01*
X121500708Y-85889355D02*
X121500708Y-85222688D01*
X121500708Y-85413164D02*
X121453089Y-85317926D01*
X121453089Y-85317926D02*
X121405470Y-85270307D01*
X121405470Y-85270307D02*
X121310232Y-85222688D01*
X121310232Y-85222688D02*
X121214994Y-85222688D01*
X120500708Y-85841736D02*
X120595946Y-85889355D01*
X120595946Y-85889355D02*
X120786422Y-85889355D01*
X120786422Y-85889355D02*
X120881660Y-85841736D01*
X120881660Y-85841736D02*
X120929279Y-85746497D01*
X120929279Y-85746497D02*
X120929279Y-85365545D01*
X120929279Y-85365545D02*
X120881660Y-85270307D01*
X120881660Y-85270307D02*
X120786422Y-85222688D01*
X120786422Y-85222688D02*
X120595946Y-85222688D01*
X120595946Y-85222688D02*
X120500708Y-85270307D01*
X120500708Y-85270307D02*
X120453089Y-85365545D01*
X120453089Y-85365545D02*
X120453089Y-85460783D01*
X120453089Y-85460783D02*
X120929279Y-85556021D01*
X119595946Y-85889355D02*
X119595946Y-85365545D01*
X119595946Y-85365545D02*
X119643565Y-85270307D01*
X119643565Y-85270307D02*
X119738803Y-85222688D01*
X119738803Y-85222688D02*
X119929279Y-85222688D01*
X119929279Y-85222688D02*
X120024517Y-85270307D01*
X119595946Y-85841736D02*
X119691184Y-85889355D01*
X119691184Y-85889355D02*
X119929279Y-85889355D01*
X119929279Y-85889355D02*
X120024517Y-85841736D01*
X120024517Y-85841736D02*
X120072136Y-85746497D01*
X120072136Y-85746497D02*
X120072136Y-85651259D01*
X120072136Y-85651259D02*
X120024517Y-85556021D01*
X120024517Y-85556021D02*
X119929279Y-85508402D01*
X119929279Y-85508402D02*
X119691184Y-85508402D01*
X119691184Y-85508402D02*
X119595946Y-85460783D01*
X118691184Y-85889355D02*
X118691184Y-84889355D01*
X118691184Y-85841736D02*
X118786422Y-85889355D01*
X118786422Y-85889355D02*
X118976898Y-85889355D01*
X118976898Y-85889355D02*
X119072136Y-85841736D01*
X119072136Y-85841736D02*
X119119755Y-85794116D01*
X119119755Y-85794116D02*
X119167374Y-85698878D01*
X119167374Y-85698878D02*
X119167374Y-85413164D01*
X119167374Y-85413164D02*
X119119755Y-85317926D01*
X119119755Y-85317926D02*
X119072136Y-85270307D01*
X119072136Y-85270307D02*
X118976898Y-85222688D01*
X118976898Y-85222688D02*
X118786422Y-85222688D01*
X118786422Y-85222688D02*
X118691184Y-85270307D01*
X118214993Y-85889355D02*
X118214993Y-84889355D01*
X118214993Y-85270307D02*
X118119755Y-85222688D01*
X118119755Y-85222688D02*
X117929279Y-85222688D01*
X117929279Y-85222688D02*
X117834041Y-85270307D01*
X117834041Y-85270307D02*
X117786422Y-85317926D01*
X117786422Y-85317926D02*
X117738803Y-85413164D01*
X117738803Y-85413164D02*
X117738803Y-85698878D01*
X117738803Y-85698878D02*
X117786422Y-85794116D01*
X117786422Y-85794116D02*
X117834041Y-85841736D01*
X117834041Y-85841736D02*
X117929279Y-85889355D01*
X117929279Y-85889355D02*
X118119755Y-85889355D01*
X118119755Y-85889355D02*
X118214993Y-85841736D01*
X117167374Y-85889355D02*
X117262612Y-85841736D01*
X117262612Y-85841736D02*
X117310231Y-85794116D01*
X117310231Y-85794116D02*
X117357850Y-85698878D01*
X117357850Y-85698878D02*
X117357850Y-85413164D01*
X117357850Y-85413164D02*
X117310231Y-85317926D01*
X117310231Y-85317926D02*
X117262612Y-85270307D01*
X117262612Y-85270307D02*
X117167374Y-85222688D01*
X117167374Y-85222688D02*
X117024517Y-85222688D01*
X117024517Y-85222688D02*
X116929279Y-85270307D01*
X116929279Y-85270307D02*
X116881660Y-85317926D01*
X116881660Y-85317926D02*
X116834041Y-85413164D01*
X116834041Y-85413164D02*
X116834041Y-85698878D01*
X116834041Y-85698878D02*
X116881660Y-85794116D01*
X116881660Y-85794116D02*
X116929279Y-85841736D01*
X116929279Y-85841736D02*
X117024517Y-85889355D01*
X117024517Y-85889355D02*
X117167374Y-85889355D01*
X115976898Y-85889355D02*
X115976898Y-85365545D01*
X115976898Y-85365545D02*
X116024517Y-85270307D01*
X116024517Y-85270307D02*
X116119755Y-85222688D01*
X116119755Y-85222688D02*
X116310231Y-85222688D01*
X116310231Y-85222688D02*
X116405469Y-85270307D01*
X115976898Y-85841736D02*
X116072136Y-85889355D01*
X116072136Y-85889355D02*
X116310231Y-85889355D01*
X116310231Y-85889355D02*
X116405469Y-85841736D01*
X116405469Y-85841736D02*
X116453088Y-85746497D01*
X116453088Y-85746497D02*
X116453088Y-85651259D01*
X116453088Y-85651259D02*
X116405469Y-85556021D01*
X116405469Y-85556021D02*
X116310231Y-85508402D01*
X116310231Y-85508402D02*
X116072136Y-85508402D01*
X116072136Y-85508402D02*
X115976898Y-85460783D01*
X115500707Y-85889355D02*
X115500707Y-85222688D01*
X115500707Y-85413164D02*
X115453088Y-85317926D01*
X115453088Y-85317926D02*
X115405469Y-85270307D01*
X115405469Y-85270307D02*
X115310231Y-85222688D01*
X115310231Y-85222688D02*
X115214993Y-85222688D01*
X114453088Y-85889355D02*
X114453088Y-84889355D01*
X114453088Y-85841736D02*
X114548326Y-85889355D01*
X114548326Y-85889355D02*
X114738802Y-85889355D01*
X114738802Y-85889355D02*
X114834040Y-85841736D01*
X114834040Y-85841736D02*
X114881659Y-85794116D01*
X114881659Y-85794116D02*
X114929278Y-85698878D01*
X114929278Y-85698878D02*
X114929278Y-85413164D01*
X114929278Y-85413164D02*
X114881659Y-85317926D01*
X114881659Y-85317926D02*
X114834040Y-85270307D01*
X114834040Y-85270307D02*
X114738802Y-85222688D01*
X114738802Y-85222688D02*
X114548326Y-85222688D01*
X114548326Y-85222688D02*
X114453088Y-85270307D01*
X128500708Y-87499299D02*
X128500708Y-86499299D01*
X128500708Y-86499299D02*
X128119756Y-86499299D01*
X128119756Y-86499299D02*
X128024518Y-86546918D01*
X128024518Y-86546918D02*
X127976899Y-86594537D01*
X127976899Y-86594537D02*
X127929280Y-86689775D01*
X127929280Y-86689775D02*
X127929280Y-86832632D01*
X127929280Y-86832632D02*
X127976899Y-86927870D01*
X127976899Y-86927870D02*
X128024518Y-86975489D01*
X128024518Y-86975489D02*
X128119756Y-87023108D01*
X128119756Y-87023108D02*
X128500708Y-87023108D01*
X127357851Y-87499299D02*
X127453089Y-87451680D01*
X127453089Y-87451680D02*
X127500708Y-87404060D01*
X127500708Y-87404060D02*
X127548327Y-87308822D01*
X127548327Y-87308822D02*
X127548327Y-87023108D01*
X127548327Y-87023108D02*
X127500708Y-86927870D01*
X127500708Y-86927870D02*
X127453089Y-86880251D01*
X127453089Y-86880251D02*
X127357851Y-86832632D01*
X127357851Y-86832632D02*
X127214994Y-86832632D01*
X127214994Y-86832632D02*
X127119756Y-86880251D01*
X127119756Y-86880251D02*
X127072137Y-86927870D01*
X127072137Y-86927870D02*
X127024518Y-87023108D01*
X127024518Y-87023108D02*
X127024518Y-87308822D01*
X127024518Y-87308822D02*
X127072137Y-87404060D01*
X127072137Y-87404060D02*
X127119756Y-87451680D01*
X127119756Y-87451680D02*
X127214994Y-87499299D01*
X127214994Y-87499299D02*
X127357851Y-87499299D01*
X126691184Y-86832632D02*
X126500708Y-87499299D01*
X126500708Y-87499299D02*
X126310232Y-87023108D01*
X126310232Y-87023108D02*
X126119756Y-87499299D01*
X126119756Y-87499299D02*
X125929280Y-86832632D01*
X125167375Y-87451680D02*
X125262613Y-87499299D01*
X125262613Y-87499299D02*
X125453089Y-87499299D01*
X125453089Y-87499299D02*
X125548327Y-87451680D01*
X125548327Y-87451680D02*
X125595946Y-87356441D01*
X125595946Y-87356441D02*
X125595946Y-86975489D01*
X125595946Y-86975489D02*
X125548327Y-86880251D01*
X125548327Y-86880251D02*
X125453089Y-86832632D01*
X125453089Y-86832632D02*
X125262613Y-86832632D01*
X125262613Y-86832632D02*
X125167375Y-86880251D01*
X125167375Y-86880251D02*
X125119756Y-86975489D01*
X125119756Y-86975489D02*
X125119756Y-87070727D01*
X125119756Y-87070727D02*
X125595946Y-87165965D01*
X124691184Y-87499299D02*
X124691184Y-86832632D01*
X124691184Y-87023108D02*
X124643565Y-86927870D01*
X124643565Y-86927870D02*
X124595946Y-86880251D01*
X124595946Y-86880251D02*
X124500708Y-86832632D01*
X124500708Y-86832632D02*
X124405470Y-86832632D01*
X123310231Y-87499299D02*
X123310231Y-86499299D01*
X123310231Y-86499299D02*
X122976898Y-87213584D01*
X122976898Y-87213584D02*
X122643565Y-86499299D01*
X122643565Y-86499299D02*
X122643565Y-87499299D01*
X122024517Y-87499299D02*
X122119755Y-87451680D01*
X122119755Y-87451680D02*
X122167374Y-87404060D01*
X122167374Y-87404060D02*
X122214993Y-87308822D01*
X122214993Y-87308822D02*
X122214993Y-87023108D01*
X122214993Y-87023108D02*
X122167374Y-86927870D01*
X122167374Y-86927870D02*
X122119755Y-86880251D01*
X122119755Y-86880251D02*
X122024517Y-86832632D01*
X122024517Y-86832632D02*
X121881660Y-86832632D01*
X121881660Y-86832632D02*
X121786422Y-86880251D01*
X121786422Y-86880251D02*
X121738803Y-86927870D01*
X121738803Y-86927870D02*
X121691184Y-87023108D01*
X121691184Y-87023108D02*
X121691184Y-87308822D01*
X121691184Y-87308822D02*
X121738803Y-87404060D01*
X121738803Y-87404060D02*
X121786422Y-87451680D01*
X121786422Y-87451680D02*
X121881660Y-87499299D01*
X121881660Y-87499299D02*
X122024517Y-87499299D01*
X120834041Y-87499299D02*
X120834041Y-86499299D01*
X120834041Y-87451680D02*
X120929279Y-87499299D01*
X120929279Y-87499299D02*
X121119755Y-87499299D01*
X121119755Y-87499299D02*
X121214993Y-87451680D01*
X121214993Y-87451680D02*
X121262612Y-87404060D01*
X121262612Y-87404060D02*
X121310231Y-87308822D01*
X121310231Y-87308822D02*
X121310231Y-87023108D01*
X121310231Y-87023108D02*
X121262612Y-86927870D01*
X121262612Y-86927870D02*
X121214993Y-86880251D01*
X121214993Y-86880251D02*
X121119755Y-86832632D01*
X121119755Y-86832632D02*
X120929279Y-86832632D01*
X120929279Y-86832632D02*
X120834041Y-86880251D01*
X119929279Y-86832632D02*
X119929279Y-87499299D01*
X120357850Y-86832632D02*
X120357850Y-87356441D01*
X120357850Y-87356441D02*
X120310231Y-87451680D01*
X120310231Y-87451680D02*
X120214993Y-87499299D01*
X120214993Y-87499299D02*
X120072136Y-87499299D01*
X120072136Y-87499299D02*
X119976898Y-87451680D01*
X119976898Y-87451680D02*
X119929279Y-87404060D01*
X119310231Y-87499299D02*
X119405469Y-87451680D01*
X119405469Y-87451680D02*
X119453088Y-87356441D01*
X119453088Y-87356441D02*
X119453088Y-86499299D01*
X118548326Y-87451680D02*
X118643564Y-87499299D01*
X118643564Y-87499299D02*
X118834040Y-87499299D01*
X118834040Y-87499299D02*
X118929278Y-87451680D01*
X118929278Y-87451680D02*
X118976897Y-87356441D01*
X118976897Y-87356441D02*
X118976897Y-86975489D01*
X118976897Y-86975489D02*
X118929278Y-86880251D01*
X118929278Y-86880251D02*
X118834040Y-86832632D01*
X118834040Y-86832632D02*
X118643564Y-86832632D01*
X118643564Y-86832632D02*
X118548326Y-86880251D01*
X118548326Y-86880251D02*
X118500707Y-86975489D01*
X118500707Y-86975489D02*
X118500707Y-87070727D01*
X118500707Y-87070727D02*
X118976897Y-87165965D01*
X127827680Y-84146499D02*
X128161013Y-83670308D01*
X128399108Y-84146499D02*
X128399108Y-83146499D01*
X128399108Y-83146499D02*
X128018156Y-83146499D01*
X128018156Y-83146499D02*
X127922918Y-83194118D01*
X127922918Y-83194118D02*
X127875299Y-83241737D01*
X127875299Y-83241737D02*
X127827680Y-83336975D01*
X127827680Y-83336975D02*
X127827680Y-83479832D01*
X127827680Y-83479832D02*
X127875299Y-83575070D01*
X127875299Y-83575070D02*
X127922918Y-83622689D01*
X127922918Y-83622689D02*
X128018156Y-83670308D01*
X128018156Y-83670308D02*
X128399108Y-83670308D01*
X127399108Y-84146499D02*
X127399108Y-83146499D01*
X127399108Y-83146499D02*
X127161013Y-83146499D01*
X127161013Y-83146499D02*
X127018156Y-83194118D01*
X127018156Y-83194118D02*
X126922918Y-83289356D01*
X126922918Y-83289356D02*
X126875299Y-83384594D01*
X126875299Y-83384594D02*
X126827680Y-83575070D01*
X126827680Y-83575070D02*
X126827680Y-83717927D01*
X126827680Y-83717927D02*
X126875299Y-83908403D01*
X126875299Y-83908403D02*
X126922918Y-84003641D01*
X126922918Y-84003641D02*
X127018156Y-84098880D01*
X127018156Y-84098880D02*
X127161013Y-84146499D01*
X127161013Y-84146499D02*
X127399108Y-84146499D01*
X126446727Y-84098880D02*
X126303870Y-84146499D01*
X126303870Y-84146499D02*
X126065775Y-84146499D01*
X126065775Y-84146499D02*
X125970537Y-84098880D01*
X125970537Y-84098880D02*
X125922918Y-84051260D01*
X125922918Y-84051260D02*
X125875299Y-83956022D01*
X125875299Y-83956022D02*
X125875299Y-83860784D01*
X125875299Y-83860784D02*
X125922918Y-83765546D01*
X125922918Y-83765546D02*
X125970537Y-83717927D01*
X125970537Y-83717927D02*
X126065775Y-83670308D01*
X126065775Y-83670308D02*
X126256251Y-83622689D01*
X126256251Y-83622689D02*
X126351489Y-83575070D01*
X126351489Y-83575070D02*
X126399108Y-83527451D01*
X126399108Y-83527451D02*
X126446727Y-83432213D01*
X126446727Y-83432213D02*
X126446727Y-83336975D01*
X126446727Y-83336975D02*
X126399108Y-83241737D01*
X126399108Y-83241737D02*
X126351489Y-83194118D01*
X126351489Y-83194118D02*
X126256251Y-83146499D01*
X126256251Y-83146499D02*
X126018156Y-83146499D01*
X126018156Y-83146499D02*
X125875299Y-83194118D01*
X125446727Y-84146499D02*
X125446727Y-83146499D01*
X125446727Y-83146499D02*
X125065775Y-83146499D01*
X125065775Y-83146499D02*
X124970537Y-83194118D01*
X124970537Y-83194118D02*
X124922918Y-83241737D01*
X124922918Y-83241737D02*
X124875299Y-83336975D01*
X124875299Y-83336975D02*
X124875299Y-83479832D01*
X124875299Y-83479832D02*
X124922918Y-83575070D01*
X124922918Y-83575070D02*
X124970537Y-83622689D01*
X124970537Y-83622689D02*
X125065775Y-83670308D01*
X125065775Y-83670308D02*
X125446727Y-83670308D01*
X124113394Y-83622689D02*
X123970537Y-83670308D01*
X123970537Y-83670308D02*
X123922918Y-83717927D01*
X123922918Y-83717927D02*
X123875299Y-83813165D01*
X123875299Y-83813165D02*
X123875299Y-83956022D01*
X123875299Y-83956022D02*
X123922918Y-84051260D01*
X123922918Y-84051260D02*
X123970537Y-84098880D01*
X123970537Y-84098880D02*
X124065775Y-84146499D01*
X124065775Y-84146499D02*
X124446727Y-84146499D01*
X124446727Y-84146499D02*
X124446727Y-83146499D01*
X124446727Y-83146499D02*
X124113394Y-83146499D01*
X124113394Y-83146499D02*
X124018156Y-83194118D01*
X124018156Y-83194118D02*
X123970537Y-83241737D01*
X123970537Y-83241737D02*
X123922918Y-83336975D01*
X123922918Y-83336975D02*
X123922918Y-83432213D01*
X123922918Y-83432213D02*
X123970537Y-83527451D01*
X123970537Y-83527451D02*
X124018156Y-83575070D01*
X124018156Y-83575070D02*
X124113394Y-83622689D01*
X124113394Y-83622689D02*
X124446727Y-83622689D01*
X122970537Y-83146499D02*
X123446727Y-83146499D01*
X123446727Y-83146499D02*
X123494346Y-83622689D01*
X123494346Y-83622689D02*
X123446727Y-83575070D01*
X123446727Y-83575070D02*
X123351489Y-83527451D01*
X123351489Y-83527451D02*
X123113394Y-83527451D01*
X123113394Y-83527451D02*
X123018156Y-83575070D01*
X123018156Y-83575070D02*
X122970537Y-83622689D01*
X122970537Y-83622689D02*
X122922918Y-83717927D01*
X122922918Y-83717927D02*
X122922918Y-83956022D01*
X122922918Y-83956022D02*
X122970537Y-84051260D01*
X122970537Y-84051260D02*
X123018156Y-84098880D01*
X123018156Y-84098880D02*
X123113394Y-84146499D01*
X123113394Y-84146499D02*
X123351489Y-84146499D01*
X123351489Y-84146499D02*
X123446727Y-84098880D01*
X123446727Y-84098880D02*
X123494346Y-84051260D01*
X122589584Y-83146499D02*
X121970537Y-83146499D01*
X121970537Y-83146499D02*
X122303870Y-83527451D01*
X122303870Y-83527451D02*
X122161013Y-83527451D01*
X122161013Y-83527451D02*
X122065775Y-83575070D01*
X122065775Y-83575070D02*
X122018156Y-83622689D01*
X122018156Y-83622689D02*
X121970537Y-83717927D01*
X121970537Y-83717927D02*
X121970537Y-83956022D01*
X121970537Y-83956022D02*
X122018156Y-84051260D01*
X122018156Y-84051260D02*
X122065775Y-84098880D01*
X122065775Y-84098880D02*
X122161013Y-84146499D01*
X122161013Y-84146499D02*
X122446727Y-84146499D01*
X122446727Y-84146499D02*
X122541965Y-84098880D01*
X122541965Y-84098880D02*
X122589584Y-84051260D01*
X121637203Y-83146499D02*
X121018156Y-83146499D01*
X121018156Y-83146499D02*
X121351489Y-83527451D01*
X121351489Y-83527451D02*
X121208632Y-83527451D01*
X121208632Y-83527451D02*
X121113394Y-83575070D01*
X121113394Y-83575070D02*
X121065775Y-83622689D01*
X121065775Y-83622689D02*
X121018156Y-83717927D01*
X121018156Y-83717927D02*
X121018156Y-83956022D01*
X121018156Y-83956022D02*
X121065775Y-84051260D01*
X121065775Y-84051260D02*
X121113394Y-84098880D01*
X121113394Y-84098880D02*
X121208632Y-84146499D01*
X121208632Y-84146499D02*
X121494346Y-84146499D01*
X121494346Y-84146499D02*
X121589584Y-84098880D01*
X121589584Y-84098880D02*
X121637203Y-84051260D01*
X120065775Y-84146499D02*
X120637203Y-84146499D01*
X120351489Y-84146499D02*
X120351489Y-83146499D01*
X120351489Y-83146499D02*
X120446727Y-83289356D01*
X120446727Y-83289356D02*
X120541965Y-83384594D01*
X120541965Y-83384594D02*
X120637203Y-83432213D01*
X119684822Y-83860784D02*
X119208632Y-83860784D01*
X119780060Y-84146499D02*
X119446727Y-83146499D01*
X119446727Y-83146499D02*
X119113394Y-84146499D01*
X136911879Y-85737299D02*
X136292832Y-85737299D01*
X136292832Y-85737299D02*
X136626165Y-86118251D01*
X136626165Y-86118251D02*
X136483308Y-86118251D01*
X136483308Y-86118251D02*
X136388070Y-86165870D01*
X136388070Y-86165870D02*
X136340451Y-86213489D01*
X136340451Y-86213489D02*
X136292832Y-86308727D01*
X136292832Y-86308727D02*
X136292832Y-86546822D01*
X136292832Y-86546822D02*
X136340451Y-86642060D01*
X136340451Y-86642060D02*
X136388070Y-86689680D01*
X136388070Y-86689680D02*
X136483308Y-86737299D01*
X136483308Y-86737299D02*
X136769022Y-86737299D01*
X136769022Y-86737299D02*
X136864260Y-86689680D01*
X136864260Y-86689680D02*
X136911879Y-86642060D01*
X136007117Y-85737299D02*
X135673784Y-86737299D01*
X135673784Y-86737299D02*
X135340451Y-85737299D01*
X135102355Y-85737299D02*
X134483308Y-85737299D01*
X134483308Y-85737299D02*
X134816641Y-86118251D01*
X134816641Y-86118251D02*
X134673784Y-86118251D01*
X134673784Y-86118251D02*
X134578546Y-86165870D01*
X134578546Y-86165870D02*
X134530927Y-86213489D01*
X134530927Y-86213489D02*
X134483308Y-86308727D01*
X134483308Y-86308727D02*
X134483308Y-86546822D01*
X134483308Y-86546822D02*
X134530927Y-86642060D01*
X134530927Y-86642060D02*
X134578546Y-86689680D01*
X134578546Y-86689680D02*
X134673784Y-86737299D01*
X134673784Y-86737299D02*
X134959498Y-86737299D01*
X134959498Y-86737299D02*
X135054736Y-86689680D01*
X135054736Y-86689680D02*
X135102355Y-86642060D01*
X136308641Y-91817299D02*
X136308641Y-90817299D01*
X136308641Y-90817299D02*
X136070546Y-90817299D01*
X136070546Y-90817299D02*
X135927689Y-90864918D01*
X135927689Y-90864918D02*
X135832451Y-90960156D01*
X135832451Y-90960156D02*
X135784832Y-91055394D01*
X135784832Y-91055394D02*
X135737213Y-91245870D01*
X135737213Y-91245870D02*
X135737213Y-91388727D01*
X135737213Y-91388727D02*
X135784832Y-91579203D01*
X135784832Y-91579203D02*
X135832451Y-91674441D01*
X135832451Y-91674441D02*
X135927689Y-91769680D01*
X135927689Y-91769680D02*
X136070546Y-91817299D01*
X136070546Y-91817299D02*
X136308641Y-91817299D01*
X135308641Y-91436346D02*
X134546737Y-91436346D01*
X134927689Y-91817299D02*
X134927689Y-91055394D01*
X136435641Y-89277299D02*
X136435641Y-88277299D01*
X136435641Y-88277299D02*
X136197546Y-88277299D01*
X136197546Y-88277299D02*
X136054689Y-88324918D01*
X136054689Y-88324918D02*
X135959451Y-88420156D01*
X135959451Y-88420156D02*
X135911832Y-88515394D01*
X135911832Y-88515394D02*
X135864213Y-88705870D01*
X135864213Y-88705870D02*
X135864213Y-88848727D01*
X135864213Y-88848727D02*
X135911832Y-89039203D01*
X135911832Y-89039203D02*
X135959451Y-89134441D01*
X135959451Y-89134441D02*
X136054689Y-89229680D01*
X136054689Y-89229680D02*
X136197546Y-89277299D01*
X136197546Y-89277299D02*
X136435641Y-89277299D01*
X135435641Y-88896346D02*
X134673737Y-88896346D01*
D11*
%TO.C,G\u002A\u002A\u002A*%
G36*
X128785772Y-94363877D02*
G01*
X128993745Y-94373893D01*
X129116248Y-94394196D01*
X129163276Y-94425950D01*
X129164572Y-94433058D01*
X129136863Y-94459933D01*
X129044421Y-94477357D01*
X128874931Y-94486761D01*
X128616081Y-94489577D01*
X128552621Y-94489457D01*
X128313909Y-94485353D01*
X128161924Y-94474355D01*
X128084355Y-94455031D01*
X128068887Y-94425950D01*
X128088559Y-94405486D01*
X128179605Y-94380732D01*
X128352114Y-94366731D01*
X128616081Y-94362323D01*
X128785772Y-94363877D01*
G37*
G36*
X125891619Y-93631835D02*
G01*
X126002716Y-93641707D01*
X126056784Y-93663331D01*
X126070991Y-93698819D01*
X126065546Y-93722397D01*
X126026578Y-93749886D01*
X125935809Y-93766532D01*
X125776592Y-93774750D01*
X125532280Y-93776952D01*
X125506633Y-93776931D01*
X125263916Y-93773356D01*
X125109319Y-93762584D01*
X125030388Y-93743084D01*
X125014671Y-93713325D01*
X125024961Y-93699579D01*
X125110189Y-93669150D01*
X125284205Y-93647995D01*
X125553382Y-93635191D01*
X125706322Y-93631606D01*
X125891619Y-93631835D01*
G37*
G36*
X125891619Y-94344461D02*
G01*
X126002716Y-94354332D01*
X126056784Y-94375956D01*
X126070991Y-94411444D01*
X126065546Y-94435022D01*
X126026578Y-94462511D01*
X125935809Y-94479158D01*
X125776592Y-94487375D01*
X125532280Y-94489577D01*
X125506633Y-94489556D01*
X125263916Y-94485982D01*
X125109319Y-94475209D01*
X125030388Y-94455709D01*
X125014671Y-94425950D01*
X125024961Y-94412205D01*
X125110189Y-94381775D01*
X125284205Y-94360621D01*
X125553382Y-94347817D01*
X125706322Y-94344232D01*
X125891619Y-94344461D01*
G37*
G36*
X129000248Y-93632278D02*
G01*
X129109097Y-93642557D01*
X129162077Y-93664101D01*
X129176001Y-93698877D01*
X129168118Y-93725990D01*
X129124530Y-93751675D01*
X129028171Y-93767224D01*
X128862716Y-93774897D01*
X128611840Y-93776952D01*
X128553953Y-93776851D01*
X128314594Y-93772820D01*
X128162167Y-93761852D01*
X128084342Y-93742502D01*
X128068786Y-93713325D01*
X128084858Y-93695533D01*
X128177921Y-93667133D01*
X128358227Y-93647369D01*
X128632948Y-93635250D01*
X128818719Y-93631293D01*
X129000248Y-93632278D01*
G37*
G36*
X128689411Y-95100579D02*
G01*
X128923214Y-95105015D01*
X129072949Y-95116655D01*
X129152563Y-95137180D01*
X129176001Y-95168268D01*
X129173990Y-95192719D01*
X129140398Y-95271740D01*
X129109189Y-95281253D01*
X128992347Y-95291475D01*
X128812712Y-95295678D01*
X128593801Y-95292949D01*
X128431766Y-95287539D01*
X128251179Y-95276372D01*
X128142233Y-95258706D01*
X128086549Y-95230942D01*
X128065752Y-95189477D01*
X128064358Y-95180973D01*
X128070548Y-95144711D01*
X128111748Y-95121244D01*
X128204653Y-95107850D01*
X128365955Y-95101808D01*
X128612349Y-95100399D01*
X128689411Y-95100579D01*
G37*
G36*
X125614346Y-95100471D02*
G01*
X125826644Y-95102735D01*
X125960493Y-95110760D01*
X126033857Y-95128005D01*
X126064702Y-95157927D01*
X126070991Y-95203983D01*
X126070749Y-95217802D01*
X126060429Y-95259509D01*
X126021444Y-95284767D01*
X125935529Y-95296697D01*
X125784417Y-95298421D01*
X125549845Y-95293061D01*
X125373304Y-95287164D01*
X125194799Y-95275923D01*
X125087161Y-95258232D01*
X125032179Y-95230585D01*
X125011643Y-95189477D01*
X125011153Y-95186808D01*
X125014099Y-95147938D01*
X125050705Y-95122773D01*
X125138002Y-95108402D01*
X125293020Y-95101915D01*
X125532790Y-95100399D01*
X125614346Y-95100471D01*
G37*
G36*
X115636197Y-93634213D02*
G01*
X115657782Y-93677990D01*
X115672424Y-93769310D01*
X115681357Y-93921732D01*
X115685812Y-94148818D01*
X115687023Y-94464126D01*
X115686117Y-94744913D01*
X115682138Y-94982347D01*
X115673836Y-95143414D01*
X115659979Y-95241672D01*
X115639335Y-95290683D01*
X115610671Y-95304006D01*
X115585145Y-95294040D01*
X115563560Y-95250263D01*
X115548917Y-95158943D01*
X115539985Y-95006521D01*
X115535529Y-94779435D01*
X115534318Y-94464126D01*
X115535224Y-94183340D01*
X115539204Y-93945906D01*
X115547505Y-93784839D01*
X115561362Y-93686581D01*
X115582006Y-93637570D01*
X115610671Y-93624247D01*
X115636197Y-93634213D01*
G37*
G36*
X127445567Y-93634375D02*
G01*
X127467087Y-93678398D01*
X127481686Y-93770016D01*
X127490592Y-93922775D01*
X127495034Y-94150223D01*
X127496242Y-94465907D01*
X127496242Y-95307568D01*
X126975095Y-95293061D01*
X126798554Y-95287164D01*
X126620050Y-95275923D01*
X126512412Y-95258232D01*
X126457430Y-95230585D01*
X126436894Y-95189477D01*
X126434961Y-95160478D01*
X126457564Y-95128737D01*
X126527444Y-95110568D01*
X126662763Y-95102335D01*
X126881688Y-95100399D01*
X127343536Y-95100399D01*
X127343536Y-94362323D01*
X127343819Y-94214878D01*
X127346891Y-93963948D01*
X127354549Y-93793784D01*
X127368277Y-93690021D01*
X127389562Y-93638296D01*
X127419889Y-93624247D01*
X127445567Y-93634375D01*
G37*
G36*
X123551370Y-91335214D02*
G01*
X123582325Y-91350476D01*
X123603545Y-91394293D01*
X123616861Y-91481313D01*
X123624106Y-91626188D01*
X123627110Y-91843565D01*
X123627705Y-92148094D01*
X123627511Y-92351849D01*
X123625603Y-92599483D01*
X123620126Y-92769243D01*
X123609249Y-92875777D01*
X123591139Y-92933736D01*
X123563967Y-92957768D01*
X123525901Y-92962523D01*
X123500432Y-92960975D01*
X123469477Y-92945713D01*
X123448257Y-92901896D01*
X123434941Y-92814875D01*
X123427696Y-92670001D01*
X123424692Y-92452624D01*
X123424097Y-92148094D01*
X123424291Y-91944340D01*
X123426199Y-91696706D01*
X123431676Y-91526946D01*
X123442553Y-91420411D01*
X123460663Y-91362453D01*
X123487835Y-91338421D01*
X123525901Y-91333666D01*
X123551370Y-91335214D01*
G37*
G36*
X122654092Y-93626119D02*
G01*
X122835779Y-93632853D01*
X122946600Y-93646286D01*
X123001864Y-93668256D01*
X123016883Y-93700599D01*
X122992678Y-93746044D01*
X122905756Y-93770097D01*
X122736923Y-93776952D01*
X122456963Y-93776952D01*
X122456963Y-94540479D01*
X122456549Y-94721933D01*
X122453226Y-94969213D01*
X122445386Y-95136911D01*
X122431614Y-95239175D01*
X122410494Y-95290157D01*
X122380610Y-95304006D01*
X122362465Y-95299859D01*
X122337737Y-95266637D01*
X122320967Y-95188238D01*
X122310741Y-95050512D01*
X122305643Y-94839309D01*
X122304258Y-94540479D01*
X122304258Y-93776952D01*
X122024298Y-93776952D01*
X121857667Y-93770351D01*
X121769472Y-93746645D01*
X121744338Y-93700599D01*
X121744342Y-93699925D01*
X121759941Y-93667782D01*
X121816057Y-93645979D01*
X121927999Y-93632681D01*
X122111081Y-93626049D01*
X122380610Y-93624247D01*
X122386228Y-93624247D01*
X122654092Y-93626119D01*
G37*
G36*
X114484312Y-93671640D02*
G01*
X114706961Y-93785609D01*
X114888207Y-93956913D01*
X115012998Y-94172818D01*
X115066287Y-94420586D01*
X115033022Y-94687483D01*
X114957903Y-94849509D01*
X114782384Y-95052981D01*
X114541733Y-95215803D01*
X114398468Y-95271204D01*
X114258608Y-95298607D01*
X114205015Y-95294678D01*
X114058805Y-95256330D01*
X113895916Y-95191071D01*
X113754958Y-95115567D01*
X113674541Y-95046486D01*
X113662484Y-95024070D01*
X113666448Y-94967668D01*
X113743757Y-94964010D01*
X113882375Y-95014923D01*
X113929992Y-95035987D01*
X114186642Y-95096401D01*
X114428492Y-95072251D01*
X114637451Y-94971529D01*
X114795429Y-94802225D01*
X114884335Y-94572330D01*
X114890070Y-94536966D01*
X114878869Y-94295563D01*
X114786389Y-94088984D01*
X114628726Y-93929316D01*
X114421979Y-93828643D01*
X114182245Y-93799049D01*
X113925623Y-93852619D01*
X113777127Y-93898969D01*
X113668809Y-93906183D01*
X113646221Y-93869040D01*
X113713343Y-93798816D01*
X113874155Y-93706789D01*
X113975000Y-93666652D01*
X114235308Y-93627742D01*
X114484312Y-93671640D01*
G37*
G36*
X123894155Y-93635575D02*
G01*
X124110876Y-93707112D01*
X124316266Y-93824959D01*
X124465090Y-93966261D01*
X124479400Y-93987857D01*
X124548292Y-94162560D01*
X124585531Y-94395338D01*
X124588225Y-94525685D01*
X124537275Y-94784260D01*
X124400911Y-94994471D01*
X124172176Y-95169348D01*
X124109530Y-95202798D01*
X123943409Y-95269929D01*
X123805861Y-95299056D01*
X123678571Y-95280901D01*
X123524519Y-95227908D01*
X123376218Y-95155204D01*
X123264573Y-95077975D01*
X123220490Y-95011408D01*
X123221155Y-94996390D01*
X123247783Y-94954119D01*
X123325706Y-94964946D01*
X123471907Y-95030133D01*
X123572694Y-95069467D01*
X123814806Y-95094962D01*
X124052683Y-95039012D01*
X124251736Y-94907075D01*
X124348924Y-94770113D01*
X124421324Y-94556471D01*
X124434175Y-94332269D01*
X124380657Y-94138172D01*
X124338281Y-94070348D01*
X124163690Y-93905375D01*
X123942252Y-93812014D01*
X123699753Y-93797784D01*
X123461979Y-93870209D01*
X123394381Y-93901618D01*
X123280569Y-93929135D01*
X123227332Y-93901737D01*
X123249151Y-93822660D01*
X123316953Y-93763196D01*
X123458065Y-93695606D01*
X123628177Y-93644488D01*
X123788155Y-93624247D01*
X123894155Y-93635575D01*
G37*
G36*
X117586700Y-93649694D02*
G01*
X117600487Y-93760981D01*
X117611446Y-93945561D01*
X117618681Y-94186876D01*
X117621292Y-94468368D01*
X117621198Y-94555540D01*
X117618593Y-94857125D01*
X117611784Y-95070551D01*
X117599924Y-95206771D01*
X117582167Y-95276739D01*
X117557665Y-95291408D01*
X117530287Y-95252846D01*
X117504603Y-95133019D01*
X117484353Y-94925682D01*
X117468586Y-94623719D01*
X117443136Y-93977112D01*
X116959568Y-94595649D01*
X116869520Y-94710982D01*
X116708924Y-94917476D01*
X116575525Y-95090042D01*
X116481200Y-95213288D01*
X116437825Y-95271821D01*
X116432224Y-95279884D01*
X116382675Y-95306602D01*
X116345791Y-95233633D01*
X116321520Y-95060638D01*
X116309813Y-94787282D01*
X116310620Y-94413225D01*
X116313691Y-94249246D01*
X116321144Y-93996034D01*
X116331833Y-93823488D01*
X116347390Y-93717594D01*
X116369451Y-93664336D01*
X116399649Y-93649698D01*
X116428065Y-93661194D01*
X116454147Y-93714164D01*
X116473445Y-93824012D01*
X116488399Y-94005714D01*
X116501452Y-94274243D01*
X116526903Y-94898788D01*
X117028312Y-94261517D01*
X117137209Y-94124477D01*
X117299214Y-93925989D01*
X117434036Y-93767405D01*
X117530019Y-93662299D01*
X117575506Y-93624247D01*
X117586700Y-93649694D01*
G37*
G36*
X127474958Y-92500351D02*
G01*
X127349199Y-92696193D01*
X127139929Y-92858707D01*
X127116599Y-92871824D01*
X126907770Y-92938213D01*
X126663562Y-92952291D01*
X126425657Y-92915427D01*
X126235738Y-92828991D01*
X126123136Y-92724824D01*
X125986219Y-92519930D01*
X125903555Y-92290515D01*
X125894624Y-92120081D01*
X126070991Y-92120081D01*
X126105800Y-92388716D01*
X126212993Y-92590688D01*
X126394578Y-92726601D01*
X126606419Y-92795149D01*
X126860719Y-92792382D01*
X127093484Y-92693761D01*
X127132172Y-92665979D01*
X127303692Y-92478841D01*
X127387986Y-92257359D01*
X127381104Y-92020790D01*
X127279100Y-91788391D01*
X127127845Y-91628435D01*
X126916531Y-91524323D01*
X126683439Y-91502893D01*
X126450600Y-91565713D01*
X126240043Y-91714353D01*
X126138426Y-91830121D01*
X126084094Y-91952780D01*
X126070991Y-92120081D01*
X125894624Y-92120081D01*
X125892214Y-92074092D01*
X125916200Y-91964212D01*
X126029281Y-91720600D01*
X126203610Y-91527820D01*
X126420711Y-91395091D01*
X126662112Y-91331632D01*
X126909338Y-91346664D01*
X127143916Y-91449406D01*
X127213427Y-91499228D01*
X127411231Y-91698489D01*
X127516681Y-91928270D01*
X127536428Y-92201309D01*
X127532723Y-92245456D01*
X127530026Y-92257359D01*
X127474958Y-92500351D01*
G37*
G36*
X119791022Y-94446955D02*
G01*
X119735725Y-94720461D01*
X119705638Y-94790819D01*
X119605414Y-94945901D01*
X119452471Y-95087343D01*
X119224699Y-95237513D01*
X119156152Y-95268376D01*
X118959831Y-95289576D01*
X118740423Y-95244830D01*
X118524754Y-95145080D01*
X118339647Y-95001271D01*
X118211928Y-94824346D01*
X118133199Y-94564947D01*
X118135904Y-94438633D01*
X118289871Y-94438633D01*
X118330305Y-94669431D01*
X118447349Y-94872330D01*
X118634549Y-95021575D01*
X118743226Y-95065073D01*
X118973787Y-95093456D01*
X119201675Y-95052035D01*
X119397720Y-94948334D01*
X119532752Y-94789878D01*
X119549688Y-94750782D01*
X119590243Y-94589718D01*
X119606462Y-94410662D01*
X119596355Y-94258289D01*
X119547551Y-94133419D01*
X119437411Y-94004935D01*
X119252503Y-93868931D01*
X119021098Y-93796366D01*
X118786919Y-93808230D01*
X118571995Y-93902956D01*
X118398354Y-94078973D01*
X118332501Y-94205691D01*
X118289871Y-94438633D01*
X118135904Y-94438633D01*
X118138728Y-94306725D01*
X118220599Y-94073047D01*
X118365842Y-93876787D01*
X118561485Y-93730822D01*
X118794556Y-93648025D01*
X119052085Y-93641271D01*
X119321099Y-93723435D01*
X119412557Y-93773875D01*
X119622803Y-93957709D01*
X119751170Y-94187387D01*
X119785450Y-94410662D01*
X119791022Y-94446955D01*
G37*
G36*
X121094857Y-93624630D02*
G01*
X121268321Y-93633192D01*
X121360748Y-93655352D01*
X121388025Y-93694216D01*
X121380379Y-93715633D01*
X121318022Y-93747590D01*
X121181416Y-93770334D01*
X120956810Y-93786819D01*
X120724220Y-93806103D01*
X120525387Y-93848429D01*
X120401182Y-93920206D01*
X120337213Y-94030496D01*
X120319087Y-94188361D01*
X120326337Y-94287010D01*
X120383030Y-94429872D01*
X120504999Y-94523910D01*
X120702972Y-94575591D01*
X120987675Y-94591381D01*
X121388025Y-94591381D01*
X121388025Y-94913759D01*
X121384027Y-95069105D01*
X121371754Y-95204977D01*
X121354091Y-95270072D01*
X121328433Y-95289928D01*
X121262367Y-95284942D01*
X121212652Y-95204653D01*
X121187563Y-95068555D01*
X121195371Y-94896140D01*
X121217688Y-94744086D01*
X120924146Y-94744086D01*
X120630604Y-94744086D01*
X120436670Y-95023443D01*
X120332498Y-95161533D01*
X120238591Y-95264020D01*
X120179107Y-95303403D01*
X120138716Y-95295985D01*
X120121658Y-95243291D01*
X120172954Y-95133987D01*
X120295005Y-94960979D01*
X120474529Y-94725863D01*
X120320456Y-94585139D01*
X120299144Y-94565120D01*
X120200054Y-94438788D01*
X120158291Y-94290131D01*
X120162281Y-94082363D01*
X120171962Y-94023471D01*
X120262991Y-93853113D01*
X120439975Y-93727878D01*
X120697482Y-93650633D01*
X121030078Y-93624247D01*
X121094857Y-93624630D01*
G37*
G36*
X128941358Y-91335458D02*
G01*
X129083975Y-91346185D01*
X129156060Y-91369818D01*
X129176001Y-91410018D01*
X129172821Y-91429152D01*
X129130061Y-91464340D01*
X129022761Y-91483642D01*
X128832414Y-91491445D01*
X128734381Y-91493585D01*
X128504510Y-91509059D01*
X128344987Y-91543629D01*
X128232677Y-91604234D01*
X128144444Y-91697815D01*
X128076678Y-91829708D01*
X128080467Y-91990174D01*
X128085283Y-92009983D01*
X128155601Y-92144657D01*
X128289206Y-92234710D01*
X128497456Y-92285104D01*
X128791710Y-92300800D01*
X129176001Y-92300800D01*
X129176001Y-92631662D01*
X129173269Y-92802230D01*
X129160009Y-92906279D01*
X129129292Y-92952211D01*
X129074198Y-92962523D01*
X129050651Y-92961434D01*
X129000504Y-92936805D01*
X128977754Y-92860670D01*
X128972394Y-92708014D01*
X128972394Y-92453505D01*
X128693421Y-92453505D01*
X128646201Y-92453595D01*
X128508204Y-92460654D01*
X128415301Y-92492717D01*
X128332409Y-92568823D01*
X128224440Y-92708014D01*
X128129509Y-92825247D01*
X128031763Y-92924410D01*
X127968944Y-92962523D01*
X127920678Y-92952549D01*
X127914240Y-92908436D01*
X127964624Y-92815885D01*
X128076888Y-92660762D01*
X128247770Y-92435353D01*
X128075613Y-92272988D01*
X128045987Y-92243591D01*
X127926953Y-92060528D01*
X127906377Y-91859311D01*
X127983190Y-91632539D01*
X128062596Y-91523189D01*
X128228182Y-91415460D01*
X128468216Y-91353504D01*
X128792603Y-91333666D01*
X128941358Y-91335458D01*
G37*
G36*
X112825431Y-93638444D02*
G01*
X112916430Y-93653937D01*
X113118379Y-93739595D01*
X113248532Y-93880597D01*
X113294639Y-94065785D01*
X113293871Y-94096210D01*
X113260515Y-94236444D01*
X113167654Y-94348033D01*
X113001276Y-94442944D01*
X112747367Y-94533144D01*
X112618507Y-94576056D01*
X112429022Y-94666229D01*
X112336496Y-94763536D01*
X112337676Y-94872737D01*
X112429308Y-94998595D01*
X112533295Y-95061984D01*
X112715510Y-95098571D01*
X112920230Y-95086287D01*
X113109575Y-95023733D01*
X113129901Y-95013353D01*
X113270489Y-94958589D01*
X113339353Y-94961644D01*
X113336221Y-95009283D01*
X113260823Y-95088271D01*
X113112888Y-95185374D01*
X113065557Y-95209809D01*
X112908266Y-95272705D01*
X112780716Y-95299903D01*
X112704643Y-95296010D01*
X112512425Y-95236988D01*
X112342450Y-95124129D01*
X112221111Y-94978318D01*
X112174799Y-94820439D01*
X112182213Y-94747927D01*
X112256205Y-94605819D01*
X112415879Y-94488171D01*
X112669004Y-94388189D01*
X112772337Y-94355408D01*
X112960002Y-94285873D01*
X113072616Y-94220553D01*
X113127489Y-94147200D01*
X113141933Y-94053566D01*
X113131551Y-93983184D01*
X113049443Y-93867396D01*
X112901402Y-93799719D01*
X112706534Y-93786523D01*
X112483949Y-93834178D01*
X112472415Y-93838132D01*
X112340927Y-93865673D01*
X112263734Y-93835346D01*
X112252364Y-93818373D01*
X112275509Y-93762533D01*
X112368331Y-93708226D01*
X112506888Y-93663847D01*
X112667235Y-93637788D01*
X112825431Y-93638444D01*
G37*
G36*
X121594054Y-91343747D02*
G01*
X121618791Y-91392704D01*
X121634688Y-91496623D01*
X121643897Y-91671107D01*
X121648565Y-91931762D01*
X121650156Y-92157192D01*
X121650237Y-92369651D01*
X121648715Y-92527126D01*
X121645691Y-92606211D01*
X121645725Y-92623442D01*
X121662326Y-92628274D01*
X121706180Y-92590561D01*
X121784002Y-92502484D01*
X121902506Y-92356228D01*
X122068407Y-92143973D01*
X122288420Y-91857902D01*
X122309974Y-91829870D01*
X122462763Y-91637843D01*
X122596097Y-91481226D01*
X122696288Y-91375503D01*
X122749649Y-91336158D01*
X122749672Y-91336157D01*
X122774848Y-91360488D01*
X122792942Y-91442944D01*
X122804808Y-91594428D01*
X122811301Y-91825844D01*
X122813276Y-92148094D01*
X122812659Y-92375091D01*
X122809029Y-92622800D01*
X122801040Y-92791810D01*
X122787446Y-92895709D01*
X122766997Y-92948084D01*
X122738444Y-92962523D01*
X122709007Y-92948778D01*
X122685186Y-92892474D01*
X122668670Y-92778698D01*
X122657413Y-92592674D01*
X122649366Y-92319628D01*
X122635120Y-91676733D01*
X122132147Y-92319628D01*
X122021407Y-92459052D01*
X121856186Y-92658862D01*
X121716029Y-92818470D01*
X121613084Y-92924237D01*
X121559502Y-92962523D01*
X121547509Y-92959652D01*
X121523828Y-92924186D01*
X121507314Y-92838078D01*
X121496871Y-92688548D01*
X121491407Y-92462813D01*
X121489829Y-92148094D01*
X121490558Y-91900009D01*
X121494332Y-91659461D01*
X121502493Y-91496301D01*
X121516329Y-91396782D01*
X121537129Y-91347153D01*
X121566182Y-91333666D01*
X121594054Y-91343747D01*
G37*
G36*
X125345753Y-91344930D02*
G01*
X125396409Y-91367253D01*
X125409268Y-91405105D01*
X125395792Y-91444071D01*
X125338417Y-91470334D01*
X125217820Y-91483352D01*
X125014779Y-91487121D01*
X125004217Y-91487155D01*
X124716433Y-91502486D01*
X124517810Y-91547806D01*
X124399485Y-91626526D01*
X124352595Y-91742059D01*
X124352210Y-91745805D01*
X124352798Y-91863642D01*
X124393041Y-91944090D01*
X124488463Y-91995667D01*
X124654588Y-92026894D01*
X124906939Y-92046291D01*
X124972585Y-92050208D01*
X125214222Y-92073230D01*
X125356709Y-92102014D01*
X125399634Y-92133220D01*
X125342584Y-92163506D01*
X125185145Y-92189530D01*
X124926905Y-92207950D01*
X124840241Y-92212032D01*
X124630322Y-92227012D01*
X124491321Y-92249415D01*
X124399888Y-92284305D01*
X124332668Y-92336741D01*
X124288337Y-92393212D01*
X124251355Y-92535105D01*
X124298002Y-92668529D01*
X124421418Y-92760716D01*
X124441784Y-92767083D01*
X124573328Y-92788841D01*
X124763986Y-92804078D01*
X124979916Y-92809818D01*
X125010880Y-92809854D01*
X125213095Y-92813606D01*
X125334488Y-92826008D01*
X125393675Y-92850571D01*
X125409268Y-92890804D01*
X125401386Y-92921371D01*
X125360907Y-92945887D01*
X125270354Y-92958217D01*
X125112545Y-92960389D01*
X124870298Y-92954431D01*
X124766766Y-92950969D01*
X124558552Y-92941227D01*
X124421063Y-92926116D01*
X124331861Y-92900204D01*
X124268511Y-92858060D01*
X124208575Y-92794254D01*
X124199216Y-92782958D01*
X124118823Y-92645010D01*
X124085821Y-92511167D01*
X124101998Y-92424205D01*
X124166001Y-92295312D01*
X124254761Y-92191024D01*
X124342313Y-92148094D01*
X124342586Y-92148093D01*
X124346859Y-92118001D01*
X124289428Y-92046291D01*
X124242585Y-91987547D01*
X124188161Y-91819332D01*
X124214181Y-91639768D01*
X124318886Y-91482518D01*
X124360739Y-91446016D01*
X124438378Y-91399251D01*
X124542305Y-91370114D01*
X124697690Y-91352794D01*
X124929707Y-91341477D01*
X125058570Y-91337258D01*
X125239180Y-91335733D01*
X125345753Y-91344930D01*
G37*
%TD*%
M02*
