M48
; DRILL file {KiCad 8.0.5} date 2024-10-01T07:57:56+0100
; FORMAT={-:-/ absolute / inch / decimal}
; #@! TF.CreationDate,2024-10-01T07:57:56+01:00
; #@! TF.GenerationSoftware,Kicad,Pcbnew,8.0.5
; #@! TF.FileFunction,Plated,1,2,PTH
FMAT,2
INCH
; #@! TA.AperFunction,Plated,PTH,ViaDrill
T1C0.0118
; #@! TA.AperFunction,Plated,PTH,ComponentDrill
T2C0.0236
; #@! TA.AperFunction,Plated,PTH,ComponentDrill
T3C0.0394
%
G90
G05
T1
X4.15Y-3.41
X4.1504Y-3.593
X4.26Y-3.33
X4.26Y-3.45
X4.26Y-3.68
X4.3206Y-3.4082
X4.42Y-3.43
X4.595Y-3.405
X4.71Y-3.58
X4.96Y-3.4
X5.062Y-3.533
X5.11Y-3.32
T3
X5.2Y-3.3
X5.2Y-3.4
X5.2Y-3.5
X5.2Y-3.6
X5.2Y-3.7
T2
G00X4.0422Y-3.3299
M15
G01X3.995Y-3.3299
M16
G05
G00X4.0422Y-3.6701
M15
G01X3.995Y-3.6701
M16
G05
G00X4.1918Y-3.3299
M15
G01X4.1603Y-3.3299
M16
G05
G00X4.1918Y-3.6701
M15
G01X4.1603Y-3.6701
M16
G05
M30
