%TF.GenerationSoftware,KiCad,Pcbnew,8.0.5*%
%TF.CreationDate,2024-10-01T07:57:58+01:00*%
%TF.ProjectId,RobinDSPS,526f6269-6e44-4535-9053-2e6b69636164,1.1*%
%TF.SameCoordinates,Original*%
%TF.FileFunction,Drillmap*%
%TF.FilePolarity,Positive*%
%FSLAX45Y45*%
G04 Gerber Fmt 4.5, Leading zero omitted, Abs format (unit mm)*
G04 Created by KiCad (PCBNEW 8.0.5) date 2024-10-01 07:57:58*
%MOMM*%
%LPD*%
G01*
G04 APERTURE LIST*
%ADD10C,0.200000*%
G04 APERTURE END LIST*
D10*
X13843000Y-8201000D02*
X13843000Y-9579000D01*
X10182200Y-9779000D02*
G75*
G02*
X9982200Y-9579000I0J200000D01*
G01*
X10182200Y-8001000D02*
X13643000Y-8001000D01*
X13643000Y-9779000D02*
X10182200Y-9779000D01*
X13643000Y-8001000D02*
G75*
G02*
X13843000Y-8201000I0J-200000D01*
G01*
X9982200Y-9579000D02*
X9982200Y-8201000D01*
X9982200Y-8201000D02*
G75*
G02*
X10182200Y-8001000I200000J0D01*
G01*
X13843000Y-9579000D02*
G75*
G02*
X13643000Y-9779000I-200000J0D01*
G01*
X10232977Y-10100484D02*
X10232977Y-9900484D01*
X10232977Y-9900484D02*
X10280596Y-9900484D01*
X10280596Y-9900484D02*
X10309167Y-9910008D01*
X10309167Y-9910008D02*
X10328215Y-9929055D01*
X10328215Y-9929055D02*
X10337739Y-9948103D01*
X10337739Y-9948103D02*
X10347263Y-9986198D01*
X10347263Y-9986198D02*
X10347263Y-10014770D01*
X10347263Y-10014770D02*
X10337739Y-10052865D01*
X10337739Y-10052865D02*
X10328215Y-10071912D01*
X10328215Y-10071912D02*
X10309167Y-10090960D01*
X10309167Y-10090960D02*
X10280596Y-10100484D01*
X10280596Y-10100484D02*
X10232977Y-10100484D01*
X10432977Y-10100484D02*
X10432977Y-9967150D01*
X10432977Y-10005246D02*
X10442501Y-9986198D01*
X10442501Y-9986198D02*
X10452024Y-9976674D01*
X10452024Y-9976674D02*
X10471072Y-9967150D01*
X10471072Y-9967150D02*
X10490120Y-9967150D01*
X10556786Y-10100484D02*
X10556786Y-9967150D01*
X10556786Y-9900484D02*
X10547263Y-9910008D01*
X10547263Y-9910008D02*
X10556786Y-9919531D01*
X10556786Y-9919531D02*
X10566310Y-9910008D01*
X10566310Y-9910008D02*
X10556786Y-9900484D01*
X10556786Y-9900484D02*
X10556786Y-9919531D01*
X10680596Y-10100484D02*
X10661548Y-10090960D01*
X10661548Y-10090960D02*
X10652024Y-10071912D01*
X10652024Y-10071912D02*
X10652024Y-9900484D01*
X10785358Y-10100484D02*
X10766310Y-10090960D01*
X10766310Y-10090960D02*
X10756786Y-10071912D01*
X10756786Y-10071912D02*
X10756786Y-9900484D01*
X11013929Y-10100484D02*
X11013929Y-9900484D01*
X11013929Y-9900484D02*
X11080596Y-10043341D01*
X11080596Y-10043341D02*
X11147263Y-9900484D01*
X11147263Y-9900484D02*
X11147263Y-10100484D01*
X11328215Y-10100484D02*
X11328215Y-9995722D01*
X11328215Y-9995722D02*
X11318691Y-9976674D01*
X11318691Y-9976674D02*
X11299643Y-9967150D01*
X11299643Y-9967150D02*
X11261548Y-9967150D01*
X11261548Y-9967150D02*
X11242501Y-9976674D01*
X11328215Y-10090960D02*
X11309167Y-10100484D01*
X11309167Y-10100484D02*
X11261548Y-10100484D01*
X11261548Y-10100484D02*
X11242501Y-10090960D01*
X11242501Y-10090960D02*
X11232977Y-10071912D01*
X11232977Y-10071912D02*
X11232977Y-10052865D01*
X11232977Y-10052865D02*
X11242501Y-10033817D01*
X11242501Y-10033817D02*
X11261548Y-10024293D01*
X11261548Y-10024293D02*
X11309167Y-10024293D01*
X11309167Y-10024293D02*
X11328215Y-10014770D01*
X11423453Y-9967150D02*
X11423453Y-10167150D01*
X11423453Y-9976674D02*
X11442501Y-9967150D01*
X11442501Y-9967150D02*
X11480596Y-9967150D01*
X11480596Y-9967150D02*
X11499643Y-9976674D01*
X11499643Y-9976674D02*
X11509167Y-9986198D01*
X11509167Y-9986198D02*
X11518691Y-10005246D01*
X11518691Y-10005246D02*
X11518691Y-10062389D01*
X11518691Y-10062389D02*
X11509167Y-10081436D01*
X11509167Y-10081436D02*
X11499643Y-10090960D01*
X11499643Y-10090960D02*
X11480596Y-10100484D01*
X11480596Y-10100484D02*
X11442501Y-10100484D01*
X11442501Y-10100484D02*
X11423453Y-10090960D01*
X11604405Y-10081436D02*
X11613929Y-10090960D01*
X11613929Y-10090960D02*
X11604405Y-10100484D01*
X11604405Y-10100484D02*
X11594882Y-10090960D01*
X11594882Y-10090960D02*
X11604405Y-10081436D01*
X11604405Y-10081436D02*
X11604405Y-10100484D01*
X11604405Y-9976674D02*
X11613929Y-9986198D01*
X11613929Y-9986198D02*
X11604405Y-9995722D01*
X11604405Y-9995722D02*
X11594882Y-9986198D01*
X11594882Y-9986198D02*
X11604405Y-9976674D01*
X11604405Y-9976674D02*
X11604405Y-9995722D01*
M02*
