%TF.GenerationSoftware,KiCad,Pcbnew,8.0.5*%
%TF.CreationDate,2024-10-01T07:57:53+01:00*%
%TF.ProjectId,RobinDSPS,526f6269-6e44-4535-9053-2e6b69636164,1.1*%
%TF.SameCoordinates,Original*%
%TF.FileFunction,Soldermask,Top*%
%TF.FilePolarity,Negative*%
%FSLAX46Y46*%
G04 Gerber Fmt 4.6, Leading zero omitted, Abs format (unit mm)*
G04 Created by KiCad (PCBNEW 8.0.5) date 2024-10-01 07:57:53*
%MOMM*%
%LPD*%
G01*
G04 APERTURE LIST*
G04 Aperture macros list*
%AMRoundRect*
0 Rectangle with rounded corners*
0 $1 Rounding radius*
0 $2 $3 $4 $5 $6 $7 $8 $9 X,Y pos of 4 corners*
0 Add a 4 corners polygon primitive as box body*
4,1,4,$2,$3,$4,$5,$6,$7,$8,$9,$2,$3,0*
0 Add four circle primitives for the rounded corners*
1,1,$1+$1,$2,$3*
1,1,$1+$1,$4,$5*
1,1,$1+$1,$6,$7*
1,1,$1+$1,$8,$9*
0 Add four rect primitives between the rounded corners*
20,1,$1+$1,$2,$3,$4,$5,0*
20,1,$1+$1,$4,$5,$6,$7,0*
20,1,$1+$1,$6,$7,$8,$9,0*
20,1,$1+$1,$8,$9,$2,$3,0*%
%AMFreePoly0*
4,1,19,0.500000,-0.750000,0.000000,-0.750000,0.000000,-0.744911,-0.071157,-0.744911,-0.207708,-0.704816,-0.327430,-0.627875,-0.420627,-0.520320,-0.479746,-0.390866,-0.500000,-0.250000,-0.500000,0.250000,-0.479746,0.390866,-0.420627,0.520320,-0.327430,0.627875,-0.207708,0.704816,-0.071157,0.744911,0.000000,0.744911,0.000000,0.750000,0.500000,0.750000,0.500000,-0.750000,0.500000,-0.750000,
$1*%
%AMFreePoly1*
4,1,19,0.000000,0.744911,0.071157,0.744911,0.207708,0.704816,0.327430,0.627875,0.420627,0.520320,0.479746,0.390866,0.500000,0.250000,0.500000,-0.250000,0.479746,-0.390866,0.420627,-0.520320,0.327430,-0.627875,0.207708,-0.704816,0.071157,-0.744911,0.000000,-0.744911,0.000000,-0.750000,-0.500000,-0.750000,-0.500000,0.750000,0.000000,0.750000,0.000000,0.744911,0.000000,0.744911,
$1*%
G04 Aperture macros list end*
%ADD10R,0.228600X0.406400*%
%ADD11RoundRect,0.250001X0.624999X-0.462499X0.624999X0.462499X-0.624999X0.462499X-0.624999X-0.462499X0*%
%ADD12RoundRect,0.200000X-0.200000X-0.275000X0.200000X-0.275000X0.200000X0.275000X-0.200000X0.275000X0*%
%ADD13FreePoly0,90.000000*%
%ADD14FreePoly1,90.000000*%
%ADD15RoundRect,0.102000X-0.575000X0.300000X-0.575000X-0.300000X0.575000X-0.300000X0.575000X0.300000X0*%
%ADD16RoundRect,0.102000X-0.575000X0.150000X-0.575000X-0.150000X0.575000X-0.150000X0.575000X0.150000X0*%
%ADD17O,2.004000X1.204000*%
%ADD18RoundRect,0.301000X-0.901000X0.301000X-0.901000X-0.301000X0.901000X-0.301000X0.901000X0.301000X0*%
%ADD19RoundRect,0.250000X0.250000X0.475000X-0.250000X0.475000X-0.250000X-0.475000X0.250000X-0.475000X0*%
%ADD20RoundRect,0.375000X-0.625000X-0.375000X0.625000X-0.375000X0.625000X0.375000X-0.625000X0.375000X0*%
%ADD21RoundRect,0.500000X-0.500000X-1.400000X0.500000X-1.400000X0.500000X1.400000X-0.500000X1.400000X0*%
%ADD22R,1.700000X1.700000*%
%ADD23O,1.700000X1.700000*%
%ADD24RoundRect,0.200000X0.200000X0.275000X-0.200000X0.275000X-0.200000X-0.275000X0.200000X-0.275000X0*%
%ADD25RoundRect,0.250000X-0.475000X0.250000X-0.475000X-0.250000X0.475000X-0.250000X0.475000X0.250000X0*%
%ADD26RoundRect,0.250000X-0.250000X-0.250000X0.250000X-0.250000X0.250000X0.250000X-0.250000X0.250000X0*%
G04 APERTURE END LIST*
D10*
%TO.C,U2*%
X110481999Y-87249000D03*
X109982000Y-87249000D03*
X109482001Y-87249000D03*
X109482001Y-88900000D03*
X110481999Y-88900000D03*
%TD*%
D11*
%TO.C,D2*%
X114300000Y-93726000D03*
X114300000Y-90751000D03*
%TD*%
D12*
%TO.C,R1*%
X104331000Y-82550000D03*
X105981000Y-82550000D03*
%TD*%
D13*
%TO.C,SB1*%
X114300000Y-85994000D03*
D14*
X114300000Y-84694000D03*
%TD*%
D15*
%TO.C,J1*%
X106647500Y-85700000D03*
X106647500Y-86500000D03*
D16*
X106647500Y-87650000D03*
X106647500Y-88650000D03*
X106647500Y-89150000D03*
X106647500Y-90150000D03*
D15*
X106647500Y-92100000D03*
X106647500Y-91300000D03*
D16*
X106647500Y-90650000D03*
X106647500Y-89650000D03*
X106647500Y-88150000D03*
X106647500Y-87150000D03*
D17*
X106072500Y-84580000D03*
X106072500Y-93220000D03*
D18*
X102072500Y-84580000D03*
X102072500Y-93220000D03*
%TD*%
D19*
%TO.C,C1*%
X111440000Y-84582000D03*
X109540000Y-84582000D03*
%TD*%
D12*
%TO.C,R2*%
X104331000Y-95250000D03*
X105981000Y-95250000D03*
%TD*%
D20*
%TO.C,U1*%
X117856000Y-87376000D03*
X117856000Y-89676000D03*
D21*
X124156000Y-89676000D03*
D20*
X117856000Y-91976000D03*
%TD*%
D22*
%TO.C,J2*%
X132080000Y-83820000D03*
D23*
X132080000Y-86360000D03*
X132080000Y-88900000D03*
X132080000Y-91440000D03*
X132080000Y-93980000D03*
%TD*%
D24*
%TO.C,R3*%
X110744000Y-93472000D03*
X109094000Y-93472000D03*
%TD*%
D25*
%TO.C,C2*%
X127254000Y-88712000D03*
X127254000Y-90612000D03*
%TD*%
D26*
%TO.C,D1*%
X119908000Y-84328000D03*
X122408000Y-84328000D03*
%TD*%
M02*
